<?xml version="1.0" encoding="UTF-8"?>
<svg id="Capa_2" data-name="Capa 2" xmlns="http://www.w3.org/2000/svg" viewBox="0 0 96.54 210.53">
  <defs>
    <style>
      .cls-1 {
        fill: #65b2b1;
      }

      .cls-1, .cls-2 {
        stroke-width: 0px;
      }

      .cls-2 {
        fill: #376160;
      }
    </style>
  </defs>
  <g id="OBJECTS">
    <g>
      <path class="cls-1" d="M41.56,64.09c-10.35-20.15-7.94-46.2,5.95-64.09,4.64,21.28,1.41,43.6-5.95,64.09Z"/>
      <path class="cls-1" d="M46.58,78.19c-1.67-22.59,10.73-45.63,30.5-56.69-4.03,21.4-15.72,40.69-30.5,56.69Z"/>
      <path class="cls-1" d="M40.46,92.06c-2.54-22.51-18.99-42.86-40.46-50.06,7.92,20.29,22.98,37.07,40.46,50.06Z"/>
      <path class="cls-1" d="M43.89,124.89c-2.54-22.51-18.99-42.86-40.46-50.06,7.92,20.29,22.98,37.07,40.46,50.06Z"/>
      <path class="cls-1" d="M55.06,163.59c-4.48-22.2-22.63-41.05-44.65-46.37,9.65,19.52,26.11,34.94,44.65,46.37Z"/>
      <path class="cls-1" d="M50.11,115.44c-1.67-22.59,10.73-45.63,30.5-56.69-4.03,21.4-15.72,40.69-30.5,56.69Z"/>
      <path class="cls-1" d="M56.42,138.46c-.16-22.65,13.74-44.82,34.2-54.53-5.45,21.09-18.4,39.55-34.2,54.53Z"/>
      <path class="cls-1" d="M62.34,164.45c-.16-22.65,13.74-44.82,34.2-54.53-5.45,21.09-18.4,39.55-34.2,54.53Z"/>
      <path class="cls-2" d="M41.95,32.21c-.18,15.33.3,30.61,1.62,45.82.4,3.8.79,7.59,1.15,11.38l1.46,11.34c.61,3.76,1.17,7.53,1.76,11.3l2.1,11.24,2.37,11.18,2.71,11.11,3,11.04,1.67,5.47,1.63,5.48c4.61,14.55,10.02,28.85,16.06,42.94-7.31-13.48-13.45-27.61-18.56-42.11-1.23-3.64-2.45-7.29-3.64-10.94l-3.25-11.07-2.84-11.18-2.47-11.27-2.04-11.36c-.55-3.81-1.13-7.61-1.67-11.42l-1.24-11.47c-.3-3.83-.57-7.67-.83-11.5-.84-15.35-.58-30.75.99-46.01Z"/>
      <polygon class="cls-2" points="60 50.18 43.52 86.97 41.78 86.14 60 50.18"/>
      <path class="cls-2" d="M69.19,75.16c-8.22,14.63-14.98,30.04-20.15,45.94l-1.82-.63c5.82-15.81,13.19-31.01,21.97-45.31Z"/>
      <polygon class="cls-2" points="75.5 104.14 54.03 144.93 52.35 144 75.5 104.14"/>
      <polygon class="cls-2" points="74.95 139.99 60.83 168.17 59.14 167.26 74.95 139.99"/>
      <polygon class="cls-2" points="22.9 63.58 44.95 97.39 43.31 98.41 22.9 63.58"/>
      <path class="cls-2" d="M23.12,95.95c8.52,12.5,17.78,24.47,27.72,35.83l-1.48,1.24c-9.5-11.83-18.26-24.21-26.24-37.06Z"/>
      <polygon class="cls-2" points="31.34 136.45 60.46 167.51 59.03 168.79 31.34 136.45"/>
    </g>
  </g>
</svg>