<?xml version="1.0" encoding="UTF-8"?>
<svg xmlns="http://www.w3.org/2000/svg" viewBox="0 0 212.2 197.48">
  <defs>
    <style>
      .cls-1 {
        isolation: isolate;
      }

      .cls-2 {
        mix-blend-mode: screen;
        opacity: .26;
      }

      .cls-3 {
        fill: #98bb58;
      }

      .cls-3, .cls-4 {
        stroke-width: 0px;
      }

      .cls-4 {
        fill: #68803c;
      }
    </style>
  </defs>
  <g class="cls-1">
    <g id="Capa_2" data-name="Capa 2">
      <g id="OBJECTS">
        <g>
          <g>
            <path class="cls-3" d="M97.86,161.07c1.74,1.06,3.04,2.68,4.34,4.24,7.38,8.83,16.63,17.12,28.02,18.85,12.07,1.83,25.06-4.23,35.86-9.93-16.27-2.82-31.47-11.45-42.23-23.97-.67-.77-1.35-1.64-1.4-2.66-.09-1.63,1.56-2.94,3.19-3.09s3.21.52,4.71,1.19c7.48,3.31,14.96,6.62,22.44,9.92,5.16,2.28,10.56,4.61,16.19,4.3,6.05-.33,11.61-3.74,15.77-8.14,4.17-4.41,6.79-10.35,9.72-15.66-24.66,7.25-52.62,2.22-73.21-13.18-2-1.49-4.14-3.99-2.91-6.16.76-1.33,2.46-1.76,3.99-1.9,3.8-.34,7.61.34,11.34,1.1,11.89,2.43,23.58,5.8,34.94,10.06,5.57,2.09,11.37,4.43,17.26,3.65,7.15-.94,13.04-6.44,16.36-12.84,3.33-6.39,5.74-13.78,6.89-20.9-16.47,4.74-33.68,6.92-50.81,6.42-7.42-.21-15.13-1.02-21.46-4.9-1.69-1.04-3.43-2.66-3.2-4.64.29-2.47,3.29-3.47,5.76-3.82,9.21-1.32,18.61-1.31,27.82.05,10.21,1.51,20.91,4.6,30.56.95,10.59-4.01,16.56-17.73,13.68-28.68-9.51,10.47-24.43,15.74-38.4,13.55-2.19-.34-4.62-1.04-5.69-2.99-1.34-2.44.29-5.63,2.68-7.04,2.39-1.41,5.29-1.57,8.06-1.85,7.42-.77,14.88-2.87,20.85-7.34,5.97-4.47,10.26-11.57,10.1-19.03-.2-8.98-7.21-17.63-5.61-26.47-5.23-1.75-10.46-3.5-15.68-5.25-8.48-2.84-17.51-5.71-26.22-3.68-10.12,2.36-17.67,10.94-22.55,20.11-4.88,9.17-7.78,19.3-12.74,28.43-.97,1.78-2.42,3.76-4.45,3.66-1.85-.09-3.12-1.91-3.67-3.68-1.33-4.24-.16-8.84,1.34-13.02,5-13.88,13.81-26.37,25.23-35.72-4.89.16-10.18-.38-15.05-.85-4.87-.47-10.18,0-13.98,3.09-3.21,2.62-4.81,6.68-6.29,10.55-4.01,10.53-8.02,21.06-12.03,31.59-1.02,2.67-2.65,5.81-5.51,5.88-2.82.08-4.66-2.95-5.42-5.67-2-7.08-1-14.73,1.45-21.66,2.45-6.93,6.28-13.28,10.09-19.57-5.98.26-12.02.53-17.78,2.16-5.76,1.64-11.29,4.79-14.63,9.75-3.99,5.92-4.38,13.53-3.8,20.65,1.34,16.41,7.12,32.36,7.07,48.83,0,2.1-.26,4.5-1.97,5.72-1.31.93-3.14.84-4.58.12-1.43-.72-2.53-1.97-3.45-3.29-3.36-4.77-4.9-10.55-6.38-16.19-3.69-14.06-7.41-28.76-4.35-42.97-5.6,2.94-11.7,6.83-16.48,10.98-4.77,4.15-8.65,9.64-9.66,15.89-.97,6.02.8,12.2,3.54,17.65,2.74,5.45,6.43,10.36,9.65,15.54.86,1.38,1.71,3.05,1.11,4.57-.61,1.52-2.53,2.17-4.13,1.84s-2.94-1.41-4.14-2.52c-5.75-5.26-10.18-11.95-12.79-19.3-4.9,8.72-7.87,19.25-6.64,29.18,1.23,9.93,7.11,19.55,16.2,23.74,10.6,4.89,23,1.83,34.21-1.42-2.08,3.02-4.14,6.37-6.23,9.39-4.22,6.12-8.56,12.58-9.32,19.97-.64,6.23,1.39,12.46,4.35,17.98,4.84,9.01,12.41,16.69,21.76,20.85,7.7,3.43,16.33,4.38,24.74,3.86,8.41-.52,16.59-2.97,24.73-5.15-10.64-3.72-20.07-10.84-26.57-20.06-1.25-1.77-2.42-3.69-2.72-5.84-.3-2.15.47-4.58,2.34-5.66,1.76-1.02,4.05-.63,5.79.43ZM92.87,88.19c-2.91-.18-5.07-2.79-6.29-5.44-1.93-4.2-2.4-8.9-2.85-13.5-.24-2.43-.24-5.37,1.81-6.7,1.08-.7,2.5-.71,3.72-.29,1.22.42,2.27,1.22,3.22,2.08,3.83,3.45,6.68,7.66,6.83,12.84.12,4.29-.31,11.39-6.45,11.01ZM118.67,76.97c-1.17.69-2.39,1.36-3.73,1.56-1.34.21-2.85-.13-3.71-1.18-1.28-1.56-.7-3.89.14-5.72,2.75-5.99,7.68-10.93,13.61-13.8,1.87-.9,4.68-2.58,6.76-1.81,2.31.85,3.28,4.1,2.82,6.29-.6,2.86-2.8,5.08-5.02,6.98-3.37,2.89-7.03,5.43-10.86,7.68ZM81.41,156.11c-2.39-.57-4-2.85-4.82-5.16-1.08-3.04-1.18-6.41-.28-9.5.44-1.51,1.2-3.04,2.58-3.78,1.73-.92,3.96-.27,5.42,1.03,2.58,2.28,5.3,7.8,4.85,11.29-.26,2.02-1.4,3.91-3.07,5.08-1.35.95-3.08,1.42-4.69,1.04Z"/>
            <path class="cls-4" d="M71.62,120.24l7.42-4.6c10.12,24.42,28.93,44.88,52.05,56.93-22.84-13-40.66-34.2-49.55-58.55l8.1-5.33c15.6,18.2,37.44,30.66,60.7,34.84-22.97-5.1-43.87-18.27-58.29-36.43l.51-.34,12.45-8.59.89-.65c21.61,13.16,47.39,18.94,72.23,16.36-24.55,1.59-49.38-4.96-69.74-18.18l8.82-6.46c4-3.07,8.02-6.1,12-9.2l8.65-7.01c15.49,6.22,32.05,9.48,48.56,9.61-15.97-1.08-31.64-5.08-46.03-11.66l.56-.45c3.86-3.24,7.68-6.52,11.5-9.81,3.72-3.25,7.4-6.55,11.03-9.9,10.61-.47,21.04-2.92,30.59-7.13-8.93,2.98-18.3,4.42-27.57,4.31,10.1-9.44,19.85-19.25,29.12-29.49-14.83,13.25-29.83,26.22-45.21,38.7-1.73-15.46,3.02-31.81,13.21-44.09-11.3,12.11-17.27,29.26-15.83,46.18-3.24,2.56-6.47,5.13-9.68,7.72l-11.89,9.18c-4.03,2.97-8.01,6.01-12.02,9.01l-5.29,3.81c-6.25-22.74-2.72-48.26,9.88-68.69-13.61,20.22-18.32,46.42-12.39,70.5l-4.39,3.16-9.75,6.84c-9.41-14.91-14.88-32.45-15.49-50.33-.33,17.95,4.24,36.09,13.17,51.96l-.22.16-11.93,8.04c-16.87-6.33-30.92-20.55-36.93-38.02,4.94,17.15,17.63,32.07,34.12,39.87l-9.6,6.28c-15.19-1.05-30.18-6.9-42.22-16.71,10.59,9.76,24.12,16.46,38.55,19.03-3.25,2.04-6.49,4.09-9.73,6.15-17.03,10.56-34.41,20.59-52,30.37,18.53-7.85,36.54-16.94,54.05-26.91,4.36-2.52,8.71-5.06,13.04-7.64l1.12-.69c-1.88,9.08-1.85,18.49-.06,27.48,2.1,10.56,6.61,20.62,13.25,28.97-6.25-8.65-10.23-18.8-11.8-29.23-1.49-9.83-.84-19.95,2.02-29.34Z"/>
          </g>
          <g class="cls-2">
            <path class="cls-3" d="M175.21,57.01c-.55.43-1.35.32-1.77-.23-.43-.55-.32-1.35.23-1.77.55-.43,1.35-.32,1.77.23.43.55.32,1.35-.23,1.77Z"/>
            <path class="cls-3" d="M186.33,39.68c-.51.4-1.25.3-1.65-.21-.4-.51-.3-1.25.21-1.65.51-.4,1.25-.3,1.65.21.4.51.3,1.25-.21,1.65Z"/>
            <path class="cls-3" d="M166.82,34.02c-.99.77-2.42.58-3.18-.41-.77-.99-.58-2.42.41-3.18s2.42-.58,3.18.41c.77.99.58,2.42-.41,3.18Z"/>
            <path class="cls-3" d="M162.97,72.45c-1.32,1.02-3.21.77-4.23-.55-1.02-1.32-.77-3.21.55-4.23,1.32-1.02,3.21-.77,4.23.55,1.02,1.32.77,3.21-.55,4.23Z"/>
            <path class="cls-3" d="M140.58,47.69c-.46.35-1.12.27-1.47-.19-.35-.46-.27-1.12.19-1.47.46-.35,1.12-.27,1.47.19.35.46.27,1.12-.19,1.47Z"/>
            <path class="cls-3" d="M124.31,96.69c-.63.49-1.54.37-2.03-.26s-.37-1.54.26-2.03,1.54-.37,2.03.26.37,1.54-.26,2.03Z"/>
            <path class="cls-3" d="M136.62,82.33c-.32.24-.77.19-1.01-.13-.24-.32-.19-.77.13-1.02.32-.24.77-.19,1.02.13.24.32.19.77-.13,1.01Z"/>
            <path class="cls-3" d="M148.91,83.3c-.33.25-.8.19-1.06-.14-.25-.33-.19-.8.14-1.06s.8-.19,1.06.14c.25.33.19.8-.14,1.06Z"/>
            <path class="cls-3" d="M114.2,57.02c-.69.53-1.69.41-2.22-.29-.53-.69-.41-1.69.29-2.22.69-.53,1.69-.41,2.22.29.53.69.41,1.69-.29,2.22Z"/>
            <path class="cls-3" d="M95.72,57.67c-.52.4-1.25.3-1.65-.21-.4-.52-.3-1.25.21-1.65s1.26-.3,1.65.21c.4.52.3,1.25-.21,1.65Z"/>
            <path class="cls-3" d="M106.84,111.92c-.62.48-1.51.36-1.99-.26-.48-.62-.36-1.51.26-1.99.62-.48,1.51-.36,1.99.26.48.62.36,1.51-.26,1.99Z"/>
            <path class="cls-3" d="M120.28,112.32c-.27.21-.66.16-.87-.11-.21-.27-.16-.66.11-.86.27-.21.66-.16.87.11.21.27.16.66-.11.87Z"/>
            <path class="cls-3" d="M181.32,106.82c-.45.35-1.09.26-1.44-.19-.35-.45-.26-1.09.19-1.44.45-.35,1.09-.26,1.44.19.35.45.26,1.09-.19,1.44Z"/>
            <path class="cls-3" d="M189.56,117.52c-.45.35-1.09.26-1.44-.19-.35-.45-.26-1.09.19-1.44.45-.35,1.09-.26,1.44.19s.26,1.09-.19,1.44Z"/>
            <path class="cls-3" d="M174.47,121.84c-.4.31-.96.23-1.27-.16-.31-.4-.23-.96.16-1.27.4-.31.96-.23,1.27.16.31.4.23.96-.16,1.27Z"/>
            <path class="cls-3" d="M160.59,149.83c-.44.34-1.06.25-1.4-.18-.34-.44-.25-1.06.18-1.4.44-.34,1.06-.25,1.4.18.34.44.25,1.06-.18,1.4Z"/>
            <path class="cls-3" d="M99.77,127.18c-.47.37-1.16.28-1.52-.2-.37-.47-.28-1.16.2-1.52.47-.37,1.16-.28,1.52.2.37.47.28,1.16-.2,1.52Z"/>
            <path class="cls-3" d="M115.96,138.01c-.18.14-.45.11-.59-.08s-.11-.45.08-.59c.18-.14.45-.11.59.08.14.18.11.45-.08.59Z"/>
            <path class="cls-3" d="M106.57,141.74c-.42.33-1.03.25-1.36-.18-.33-.42-.25-1.03.18-1.36.42-.33,1.03-.25,1.36.18.33.42.25,1.03-.18,1.36Z"/>
            <path class="cls-3" d="M96.91,153.04c-.46.35-1.11.27-1.47-.19-.35-.46-.27-1.11.19-1.47.46-.35,1.11-.27,1.47.19.35.46.27,1.11-.19,1.47Z"/>
            <path class="cls-3" d="M77.44,129.17c-.37.29-.9.22-1.19-.15-.29-.37-.22-.9.15-1.19.37-.29.9-.22,1.19.15.29.37.22.9-.15,1.19Z"/>
            <path class="cls-3" d="M82.81,163.92c-.23.18-.56.13-.73-.09-.18-.23-.13-.56.09-.73.23-.18.56-.13.73.09.18.23.13.56-.09.73Z"/>
            <path class="cls-3" d="M60.93,158.49c-.24.18-.58.14-.76-.1s-.14-.58.1-.76.58-.14.76.1c.18.24.14.58-.1.76Z"/>
            <path class="cls-3" d="M60.14,144.33c-.32.24-.77.18-1.01-.13-.24-.32-.18-.77.13-1.01.32-.24.77-.18,1.01.13.24.32.18.77-.13,1.01Z"/>
            <path class="cls-3" d="M54.86,160.59c-.47.37-1.16.28-1.52-.2-.37-.47-.28-1.16.2-1.52.47-.37,1.16-.28,1.52.2.37.47.28,1.16-.2,1.52Z"/>
            <path class="cls-3" d="M68.78,169.11c-.12.09-.29.07-.38-.05-.09-.12-.07-.29.05-.38s.29-.07.38.05.07.29-.05.38Z"/>
            <path class="cls-3" d="M74.42,98.7c-.7.54-1.71.41-2.25-.29-.54-.7-.41-1.71.29-2.25s1.71-.41,2.25.29.41,1.71-.29,2.25Z"/>
            <path class="cls-3" d="M77.63,87.49c-.4.3-.96.23-1.27-.16-.31-.4-.23-.96.16-1.27.4-.31.96-.23,1.27.16s.23.96-.16,1.27Z"/>
            <path class="cls-3" d="M84.28,99.87c-.61.47-1.48.35-1.95-.25-.47-.61-.35-1.48.25-1.95.61-.47,1.48-.35,1.95.25.47.61.35,1.48-.25,1.95Z"/>
            <path class="cls-3" d="M68.08,102.26c-.47.36-1.15.28-1.51-.2-.36-.47-.28-1.15.2-1.51.47-.36,1.15-.28,1.51.2.36.47.28,1.15-.2,1.51Z"/>
            <path class="cls-3" d="M49.17,107.14c-.69.53-1.69.41-2.22-.29-.53-.69-.41-1.69.29-2.22.69-.53,1.69-.41,2.22.29.53.69.41,1.69-.29,2.22Z"/>
            <path class="cls-3" d="M62.34,112.12c-.31.24-.75.18-.99-.13-.24-.31-.18-.75.13-.99s.75-.18.99.13c.24.31.18.75-.13.99Z"/>
            <path class="cls-3" d="M55.56,105.36c-.54.42-1.32.32-1.74-.23s-.32-1.32.23-1.74c.54-.42,1.32-.32,1.74.23.42.54.32,1.32-.23,1.74Z"/>
            <path class="cls-3" d="M29.16,118.56c-.58.45-1.41.34-1.86-.24-.45-.58-.34-1.41.24-1.86.58-.45,1.41-.34,1.86.24.45.58.34,1.41-.24,1.86Z"/>
            <path class="cls-3" d="M42.76,121.77c.32-.24.77-.18,1.01.13.24.32.18.77-.13,1.01s-.77.18-1.01-.13c-.24-.32-.18-.77.13-1.01Z"/>
            <path class="cls-3" d="M40.16,60.73c-.95.73-2.31.55-3.04-.39s-.55-2.31.39-3.04,2.31-.55,3.04.39c.73.95.55,2.31-.39,3.04Z"/>
            <path class="cls-3" d="M46.64,70.9c-.47.37-1.15.28-1.52-.2-.37-.47-.28-1.15.2-1.52.47-.37,1.15-.28,1.52.2.37.47.28,1.15-.2,1.52Z"/>
            <path class="cls-3" d="M33.62,74.86c-.31.24-.75.18-.99-.13-.24-.31-.18-.75.13-.99.31-.24.75-.18.99.13.24.31.18.75-.13.99Z"/>
            <path class="cls-3" d="M72.04,32.28c-.28.21-.67.16-.89-.11-.21-.28-.16-.67.11-.89.28-.21.67-.16.89.11.21.28.16.67-.11.89Z"/>
            <path class="cls-3" d="M81.6,43.95c-.04.35-.36.59-.71.55-.35-.04-.59-.36-.55-.71.04-.35.36-.59.71-.55s.59.36.55.71Z"/>
            <path class="cls-3" d="M147.79,26.97c-.92.71-2.25.54-2.96-.38-.71-.92-.54-2.25.38-2.96.92-.71,2.25-.54,2.96.38.71.92.54,2.25-.38,2.96Z"/>
            <path class="cls-3" d="M155.99,11.21c-.26.2-.63.15-.83-.11-.2-.26-.15-.63.11-.83.26-.2.63-.15.83.11s.15.63-.11.83Z"/>
            <path class="cls-3" d="M126.37,13.71c-.74.57-1.8.43-2.37-.31-.57-.74-.43-1.8.31-2.37.74-.57,1.8-.43,2.37.31.57.74.43,1.8-.31,2.37Z"/>
            <path class="cls-3" d="M133.39,8.29s-.23-.3-.52-.67-.52-.67-.52-.67c0,0,.23.3.52.67s.52.67.52.67Z"/>
          </g>
        </g>
      </g>
    </g>
  </g>
</svg>