<?xml version="1.0" encoding="UTF-8"?>
<svg xmlns="http://www.w3.org/2000/svg" viewBox="0 0 90.97 221.17">
  <defs>
    <style>
      .cls-1 {
        mix-blend-mode: screen;
        opacity: .43;
      }

      .cls-2 {
        isolation: isolate;
      }

      .cls-3 {
        fill: #66b582;
      }

      .cls-3, .cls-4, .cls-5 {
        stroke-width: 0px;
      }

      .cls-4 {
        fill: #56996e;
      }

      .cls-5 {
        fill: #72c990;
      }
    </style>
  </defs>
  <g class="cls-2">
    <g id="Capa_2" data-name="Capa 2">
      <g id="OBJECTS">
        <g>
          <path class="cls-3" d="M84.11,221.17c-14.41-2.83-27.81-10.63-37.47-21.81-9.95-11.52-15.72-26.04-21.26-40.27C12.04,124.89-1.3,89.39.1,52.65.78,34.82,4.94,17.34,9.08,0c32.09,24.2,57.84,58.6,71.49,96.66,13.65,38.06,12.82,85.12,3.54,124.5Z"/>
          <path class="cls-4" d="M83.47,105.64c-.25-.88-.51-1.75-.78-2.62l-31.45,35.53c-1.73-5.2-3.47-10.65-5.24-16.36,10.96-10.5,21.6-21.52,31.77-32.88-.32-.79-.65-1.59-.98-2.38-10.1,11.32-20.67,22.3-31.55,32.77-.17-.57-.35-1.14-.52-1.71,0-.03-.02-.07-.03-.1,10.55-11.08,20.79-22.61,30.6-34.46-.35-.79-.7-1.57-1.06-2.36-9.72,11.77-19.85,23.23-30.31,34.25-2.78-9.23-5.48-18.57-8.11-27.84,9-9.42,17.77-19.21,26.2-29.25-.43-.69-.86-1.38-1.29-2.07-8.25,9.84-16.83,19.46-25.64,28.72-.32-1.11-.63-2.22-.94-3.33l.29.22,22.99-30.66c-.46-.68-.91-1.36-1.38-2.03l-22.57,30.1c-.68-2.4-1.35-4.8-2.02-7.18-2.11-7.49-4.23-15.05-6.41-22.63,5.28-6.64,10.33-13.52,15.11-20.59-.53-.6-1.06-1.19-1.6-1.78-4.53,6.72-9.31,13.28-14.31,19.62-.41-1.44-.83-2.88-1.25-4.32,4.02-6.39,7.9-12.92,11.65-19.52-.56-.58-1.12-1.16-1.68-1.73-3.49,6.18-7.11,12.28-10.84,18.28C18.32,26.43,14.35,13.49,10.05.74c-.32-.25-.64-.5-.97-.74-.24,1-.48,2-.71,3,5.93,17.71,11.23,35.77,16.3,53.6L.61,45.02c-.07.83-.14,1.66-.2,2.49l24.93,12,.1-.21c.26.93.52,1.85.78,2.77L.15,51.73c-.01.31-.03.61-.05.92-.02.52-.03,1.03-.04,1.55l26.95,10.69c.73,2.6,1.46,5.19,2.19,7.77,2.29,8.16,4.63,16.47,7.03,24.79-11.19-2.8-22.35-6.03-33.37-9.61.16.87.32,1.74.49,2.61,11.1,3.59,22.36,6.81,33.63,9.6,1.8,6.23,3.64,12.47,5.52,18.64.96,3.15,1.96,6.39,3,9.69l-34.21-7.88c.28.86.56,1.73.84,2.59l34.18,7.87c1.44,4.54,2.97,9.2,4.59,13.97l-33.17-5.88c.31.85.63,1.69.94,2.54l33.09,5.86c3.04,8.86,6.4,18.03,10.13,27.34-11-.63-21.85-2.44-32.41-5.41.38.91.76,1.82,1.15,2.73,10.52,2.82,21.3,4.52,32.22,5.07,3.69,9.07,7.73,18.25,12.19,27.37-8.82-.79-17.69-1.82-26.5-3.08.89.95,1.82,1.86,2.77,2.75,8.3,1.14,16.64,2.07,24.94,2.78,2.34,4.71,4.8,9.4,7.38,14.06.16.03.32.07.48.1.22-.92.42-1.84.63-2.76-5.54-10.11-11.59-22.44-18.06-38.03l23.64-35.58c-.09-1.24-.2-2.48-.31-3.72l-24.39,36.71c-.68-1.68-1.37-3.39-2.06-5.14l25.77-38.03c-.14-1.15-.3-2.31-.46-3.45l-26.34,38.87c-2.85-7.32-5.77-15.27-8.76-23.96l31.56-33.47c-.22-.89-.44-1.78-.68-2.67l-31.73,33.66c-.28-.82-.56-1.65-.84-2.49l31.38-35.46Z"/>
          <g>
            <path class="cls-5" d="M34.61,22.79c-.55-.58-1.11-1.15-1.67-1.72.56.57,1.12,1.14,1.67,1.72Z"/>
            <path class="cls-5" d="M22.1,39.33c3.73-5.99,7.34-12.1,10.84-18.28C25.77,13.71,18.12,6.9,10.05.74c4.3,12.75,8.27,25.68,12.05,38.59Z"/>
            <path class="cls-5" d="M63.55,172.64c.69,1.75,1.38,3.46,2.06,5.14l24.39-36.71c-.2-2.16-.42-4.31-.68-6.45l-25.77,38.03Z"/>
            <path class="cls-5" d="M77.26,88.11c.17.4.34.81.5,1.21-10.17,11.37-20.81,22.38-31.77,32.88,1.77,5.71,3.51,11.16,5.24,16.36l31.45-35.53c-.66-2.15-1.36-4.27-2.11-6.36-1.03-2.87-2.14-5.73-3.31-8.56Z"/>
            <path class="cls-5" d="M17.73,139.05l33.17,5.88c-1.62-4.76-3.14-9.43-4.59-13.97l-34.18-7.87c2.05,6.21,4.25,12.37,6.54,18.5-.31-.84-.63-1.69-.94-2.54Z"/>
            <path class="cls-5" d="M76.25,207c-8.3-.71-16.64-1.65-24.94-2.78-.44-.42-.88-.84-1.32-1.27,9.18,9.13,21.01,15.53,33.63,18.11-2.57-4.65-5.03-9.34-7.38-14.06Z"/>
            <path class="cls-5" d="M26.22,62.07c-.26-.92-.52-1.85-.78-2.77l-.1.21L.4,47.51c.06-.83.13-1.66.2-2.49l24.06,11.58C19.6,38.76,14.29,20.7,8.37,3,4.48,19.36.75,35.85.1,52.65c.01-.31.03-.61.05-.92l26.07,10.34Z"/>
            <path class="cls-5" d="M43.9,115.34c10.46-11.02,20.59-22.49,30.31-34.25-3.59-7.84-7.68-15.47-12.23-22.83-8.43,10.03-17.19,19.82-26.2,29.25,2.63,9.27,5.33,18.61,8.11,27.84Z"/>
            <path class="cls-5" d="M75.27,83.44c-.35-.79-.7-1.57-1.06-2.35.36.78.71,1.57,1.06,2.35Z"/>
            <path class="cls-5" d="M44.7,118c.18.58.35,1.14.52,1.71,10.89-10.47,21.45-21.45,31.55-32.77-.49-1.17-.99-2.34-1.51-3.5-9.81,11.84-20.05,23.38-30.6,34.46.01.03.02.07.03.1Z"/>
          </g>
          <g class="cls-1">
            <path class="cls-3" d="M22.91,81.55c.13.36-.06.76-.42.89-.36.13-.75-.07-.88-.43-.13-.36.06-.76.42-.89.36-.13.75.07.88.43Z"/>
            <path class="cls-3" d="M36.8,56.1c.75.37,1.07,1.29.71,2.05-.36.76-1.27,1.08-2.03.71-.75-.37-1.07-1.29-.71-2.05.36-.76,1.27-1.08,2.03-.71Z"/>
            <path class="cls-3" d="M15.73,42.39c.17.48-.09,1.01-.56,1.18s-1-.09-1.17-.57c-.17-.48.09-1.01.56-1.18.48-.17,1,.09,1.17.57Z"/>
            <path class="cls-3" d="M27,22.93c.1.28-.05.59-.33.69-.28.1-.58-.05-.68-.33s.05-.59.33-.69c.28-.1.58.05.68.33Z"/>
            <path class="cls-3" d="M12.59,29.28c.12.34-.06.72-.4.84-.34.12-.71-.06-.83-.4-.12-.34.06-.72.4-.84.34-.12.71.06.83.4Z"/>
            <path class="cls-3" d="M45.35,84.21c-.14-.41.07-.85.47-.99.4-.14.84.07.98.48s-.07.85-.47.99-.84-.07-.98-.48Z"/>
            <path class="cls-3" d="M49.87,101.56c.35,1-.18,2.1-1.17,2.45-.99.35-2.08-.18-2.42-1.18-.35-1,.18-2.1,1.17-2.45.99-.35,2.08.18,2.42,1.18Z"/>
            <path class="cls-3" d="M44.39,90.55c.2.58-.1,1.22-.68,1.43s-1.21-.1-1.41-.69c-.2-.58.1-1.22.68-1.43s1.21.1,1.41.69Z"/>
            <path class="cls-3" d="M55.38,86.08c.1.29-.05.61-.34.71-.29.1-.6-.05-.7-.34-.1-.29.05-.61.34-.71.29-.1.6.05.7.34Z"/>
            <path class="cls-3" d="M58.21,72c.06.16-.03.33-.19.39-.16.06-.33-.03-.39-.19-.06-.16.03-.33.19-.39.16-.06.33.03.39.19Z"/>
            <path class="cls-3" d="M25.62,111.13c.17.5-.09,1.05-.58,1.22-.5.17-1.04-.09-1.21-.59s.09-1.05.58-1.22c.5-.17,1.04.09,1.21.59Z"/>
            <path class="cls-3" d="M31.49,100.97c.16.47-.08.98-.55,1.15-.46.16-.97-.08-1.13-.55s.08-.98.55-1.15c.46-.16.97.08,1.13.55Z"/>
            <path class="cls-3" d="M35.25,116.32c.16.45-.08.94-.53,1.1s-.93-.08-1.09-.53.08-.94.53-1.1c.45-.16.93.08,1.09.53Z"/>
            <path class="cls-3" d="M59.23,119.75c.14.41-.07.85-.47.99-.4.14-.84-.07-.98-.48-.14-.41.07-.85.47-.99s.84.07.98.48Z"/>
            <path class="cls-3" d="M66.77,108.31c.1.3-.05.62-.35.73-.29.1-.61-.05-.72-.35-.1-.3.05-.62.35-.73s.61.05.72.35Z"/>
            <path class="cls-3" d="M56.2,126.14c.24.69-.12,1.44-.8,1.68-.68.24-1.43-.12-1.67-.81-.24-.69.12-1.44.8-1.68.68-.24,1.43.12,1.66.81Z"/>
            <path class="cls-3" d="M41.14,135.12c.39,1.12-.2,2.34-1.3,2.73-1.11.39-2.31-.2-2.7-1.32-.39-1.12.2-2.34,1.3-2.73,1.11-.39,2.31.2,2.7,1.32Z"/>
            <path class="cls-3" d="M42.6,155.81c.22.64-.11,1.35-.75,1.57s-1.33-.12-1.55-.76c-.22-.64.11-1.35.75-1.57s1.33.12,1.55.76Z"/>
            <path class="cls-3" d="M61.11,146.95c.17.5-.09,1.05-.59,1.23s-1.04-.09-1.22-.59c-.17-.5.09-1.05.59-1.23.5-.18,1.04.09,1.22.59Z"/>
            <path class="cls-3" d="M69.31,139.41c.04.11-.02.23-.13.27-.11.04-.23-.02-.26-.13-.04-.11.02-.23.13-.27.11-.04.23.02.26.13Z"/>
            <path class="cls-3" d="M63.79,156.17c.13.37-.07.78-.43.91-.37.13-.77-.07-.9-.44-.13-.37.07-.78.43-.91.37-.13.77.07.9.44Z"/>
            <path class="cls-3" d="M76.8,140.85c.22.63-.11,1.32-.74,1.54-.63.22-1.31-.11-1.53-.75s.11-1.32.74-1.54,1.31.11,1.53.75Z"/>
            <path class="cls-3" d="M79.85,129.95c.14.42-.07.87-.48,1.01-.41.14-.86-.07-1-.49-.14-.42.07-.87.48-1.01.41-.14.86.07,1,.49Z"/>
            <path class="cls-3" d="M76.08,182.51c.1.29-.05.61-.34.71-.29.1-.6-.05-.7-.34-.1-.29.05-.61.34-.71.29-.1.6.05.7.34Z"/>
            <path class="cls-3" d="M81.64,169.43c.17.49-.09,1.03-.57,1.2-.49.17-1.02-.09-1.19-.58-.17-.49.09-1.03.57-1.2s1.02.09,1.19.58Z"/>
            <path class="cls-3" d="M80.22,189.62c.14.42-.07.88-.49,1.02-.41.15-.87-.08-1.01-.49-.14-.42.07-.88.49-1.02.41-.15.87.08,1.01.49Z"/>
            <path class="cls-3" d="M53.84,185c.1.29-.05.62-.34.72s-.61-.05-.71-.35c-.1-.29.05-.62.34-.72.29-.1.61.05.71.35Z"/>
            <path class="cls-3" d="M64.42,196.52c.22.65-.12,1.36-.76,1.59-.64.23-1.35-.12-1.57-.77s.12-1.36.76-1.59c.64-.23,1.35.12,1.57.77Z"/>
            <path class="cls-3" d="M62.84,181.12c.2.59-.11,1.24-.69,1.45-.59.21-1.23-.11-1.43-.7-.2-.59.11-1.24.69-1.45.59-.21,1.23.11,1.43.7Z"/>
            <path class="cls-3" d="M56.1,193.28c.19.54-.1,1.13-.63,1.32-.53.19-1.12-.1-1.3-.64s.1-1.13.63-1.32,1.12.1,1.3.64Z"/>
          </g>
        </g>
      </g>
    </g>
  </g>
</svg>