<?xml version="1.0" encoding="UTF-8"?>
<svg id="Capa_2" data-name="Capa 2" xmlns="http://www.w3.org/2000/svg" viewBox="0 0 103.91 199.85">
  <defs>
    <style>
      .cls-1 {
        fill: #65b2b1;
      }

      .cls-1, .cls-2 {
        stroke-width: 0px;
      }

      .cls-2 {
        fill: #376160;
      }
    </style>
  </defs>
  <g id="OBJECTS">
    <g>
      <path class="cls-1" d="M52.53,53.75c.35-22.65,14.75-44.49,35.42-53.75-5.92,20.96-19.28,39.12-35.42,53.75Z"/>
      <path class="cls-1" d="M50.32,68.54c9.16-20.72,30.94-35.21,53.59-35.66-13.63,16.98-33.02,28.49-53.59,35.66Z"/>
      <path class="cls-1" d="M38.4,77.9c8.35-21.06,3.42-46.75-12.13-63.22-2.56,21.63,2.82,43.53,12.13,63.22Z"/>
      <path class="cls-1" d="M25.96,108.48c8.35-21.06,3.42-46.75-12.13-63.22-2.56,21.63,2.82,43.53,12.13,63.22Z"/>
      <path class="cls-1" d="M17.61,147.89c6.5-21.7-.64-46.87-17.56-61.93-.67,21.77,6.58,43.12,17.56,61.93Z"/>
      <path class="cls-1" d="M35.91,103.07c9.16-20.72,30.94-35.21,53.59-35.66-13.63,16.98-33.02,28.49-53.59,35.66Z"/>
      <path class="cls-1" d="M30.64,126.35c10.52-20.06,33.22-33.07,55.85-32.01-14.73,16.04-34.85,26.23-55.85,32.01Z"/>
      <path class="cls-1" d="M23.62,152.07c10.52-20.06,33.22-33.07,55.85-32.01-14.73,16.04-34.85,26.23-55.85,32.01Z"/>
      <path class="cls-2" d="M67.88,25.8c-7.38,13.44-14.15,27.15-20.14,41.19-1.44,3.54-2.87,7.07-4.34,10.59l-4.05,10.7c-1.23,3.61-2.51,7.2-3.77,10.8l-3.44,10.9-3.17,10.99-2.84,11.08-2.55,11.15-1.1,5.61-1.14,5.61c-2.79,15.01-4.74,30.17-6.04,45.45-.1-15.33,1.13-30.69,3.45-45.89.63-3.79,1.27-7.58,1.94-11.37l2.34-11.29,2.76-11.2,3.13-11.11,3.55-10.98c1.3-3.62,2.58-7.25,3.9-10.86l4.3-10.7c1.54-3.52,3.11-7.03,4.68-10.54,6.49-13.93,13.96-27.41,22.53-40.12Z"/>
      <polygon class="cls-2" points="75.35 50.15 43.49 74.85 42.35 73.3 75.35 50.15"/>
      <path class="cls-2" d="M71.7,76.51c-14.14,9.04-27.36,19.46-39.4,31.05l-1.31-1.41c12.58-11.21,26.24-21.14,40.71-29.63Z"/>
      <polygon class="cls-2" points="63.62 105.06 25.48 130.94 24.43 129.32 63.62 105.06"/>
      <polygon class="cls-2" points="46.26 136.42 20.54 154.64 19.47 153.04 46.26 136.42"/>
      <polygon class="cls-2" points="36.31 44.5 39.84 84.72 37.92 84.84 36.31 44.5"/>
      <path class="cls-2" d="M21.26,73.17c1.63,15.04,4.16,29.96,7.59,44.66l-1.89.4c-2.81-14.9-4.72-29.96-5.7-45.05Z"/>
      <polygon class="cls-2" points="9.45 112.77 20.53 153.88 18.65 154.34 9.45 112.77"/>
    </g>
  </g>
</svg>