<?xml version="1.0" encoding="UTF-8"?>
<svg id="Capa_2" data-name="Capa 2" xmlns="http://www.w3.org/2000/svg" viewBox="0 0 261.62 176.65">
  <defs>
    <style>
      .cls-1 {
        fill: #456b4f;
        stroke-width: 0px;
      }
    </style>
  </defs>
  <g id="OBJECTS">
    <g>
      <path class="cls-1" d="M228.89,62.89l-7.27,8.83-1.26,1.45-8.18,1.1c-20.51-3.65-41.96-3.21-61.39,4.21,19.33,10.81,44.73,9.61,63.03-2.83l4.78-.44-4.46,5.15-7.74,8.41-2.35,2.43c-2.06.63-4.12,1.24-6.19,1.82-20.96-2.41-42.64-.61-61.78,8.2,19.81,9.41,44.78,6.68,62.19-6.62,1.1-.26,2.19-.53,3.28-.81l-3.1,3.2c-2.73,2.66-5.48,5.3-8.19,7.97l-8.4,7.76c-1.06.92-2.12,1.84-3.18,2.76l-9.65,1.92c-20.8-2.33-42.28-.48-61.28,8.26,20.05,9.52,45.37,6.6,62.81-7.11l5.56-.83c-.96.84-1.92,1.68-2.88,2.53-4.2,3.57-8.48,7.06-12.82,10.47-20.02,5.98-39.03,16.07-53.08,31.5,21.81.93,43.63-11.22,54.52-30.1,4.43-3.16,8.79-6.44,13.05-9.84,2.97-2.43,5.94-4.87,8.89-7.34l2.55-2.26-1.31,3.32c-15.85,15.22-22.33,39.59-15.96,60.65,11.59-17.66,16.61-38.88,17.33-60.01l3.01-6.67,3-2.66c2.8-2.64,5.56-5.31,8.34-7.97l8.08-8.24,2.82-3.11c-.5,1.98-1.01,3.96-1.55,5.94-16.06,15.2-22.67,39.74-16.26,60.92,11.49-17.5,16.52-38.5,17.31-59.44,1.09-3.43,2.14-6.87,3.13-10.32l2.3-2.53,7.48-8.79,7.14-9.06c1.46-1.96,2.9-3.94,4.35-5.91l-.89,4.41c-14.18,16.54-18.4,41.13-10.29,61.39,10.13-18.81,13.25-40.67,12.03-62.01l1.87-7.49h-.03c8.77-12.47,16.67-25.56,23.37-39.21-7.99,13.08-16.51,25.78-25.71,37.96l-.24.3-3.81.59c-21.08-4.02-43.26-3.79-63.3,3.86,18.95,10.6,43.73,9.66,61.93-2.1l3.61-.33-1.71,2.19-3.49,4.53Z"/>
      <path class="cls-1" d="M49.73,29.67c-1.38-.07-2.69-.61-3.97-1.12-7.28-2.89-15.51-4.85-22.87-2.19-7.82,2.82-13.62,10.66-18.23,17.57,10.65-3.59,22.54-3.36,33.04.64.65.25,1.34.54,1.7,1.14.58.95.02,2.26-.9,2.88s-2.09.73-3.2.82c-5.55.45-11.09.9-16.64,1.34-3.83.31-7.81.67-11.08,2.68-3.51,2.16-5.73,6-6.8,9.99-1.06,3.99-.7,8.39-.73,12.52,12.4-12.34,30.76-18.4,48.07-15.87,1.68.25,3.77,1.05,3.74,2.74-.02,1.04-.9,1.85-1.77,2.43-2.16,1.43-4.66,2.26-7.14,3.02-7.9,2.4-15.99,4.18-24.17,5.32-4.01.56-8.24,1.04-11.51,3.41-3.97,2.88-5.71,8.08-5.62,12.99.08,4.9,1.04,10.11,2.66,14.74,8.32-8.18,17.9-15.06,28.31-20.33,4.51-2.28,9.38-4.3,14.43-4.03,1.35.07,2.92.48,3.42,1.74.63,1.57-.85,3.14-2.2,4.15-5.08,3.78-10.71,6.82-16.66,9-6.6,2.41-14,4.03-18.59,9.35-5.04,5.83-4.15,15.98,1.12,21.6,2.29-9.35,9.51-17.34,18.57-20.57,1.42-.51,3.1-.88,4.37-.06,1.59,1.02,1.65,3.46.68,5.08-.97,1.62-2.66,2.65-4.22,3.72-4.19,2.87-7.97,6.55-10.09,11.16-2.12,4.61-2.39,10.25.13,14.66,3.03,5.31,10.04,8.21,11.94,14.02,3.7-.65,7.39-1.3,11.09-1.95,6-1.05,12.33-2.26,16.88-6.31,5.29-4.69,7.02-12.28,6.97-19.35-.06-7.07-1.6-14.07-1.6-21.14,0-1.38.23-3.03,1.47-3.63,1.13-.54,2.49.13,3.39,1.01,2.17,2.11,2.96,5.23,3.42,8.22,1.52,9.93.29,20.26-3.5,29.55,2.88-1.68,6.21-3.07,9.28-4.37,3.07-1.3,6.09-3.3,7.36-6.38,1.07-2.61.71-5.55.34-8.35-1.02-7.6-2.04-15.2-3.05-22.8-.26-1.93-.3-4.33,1.39-5.31,1.66-.96,3.74.26,5.08,1.63,3.49,3.59,5.38,8.49,6.16,13.43.79,4.94.55,9.98.32,14.98,3.49-2.09,7.02-4.22,9.93-7.06s5.2-6.53,5.59-10.58c.47-4.83-1.77-9.52-4.43-13.58-6.13-9.38-14.76-17.05-20.07-26.92-.68-1.26-1.3-2.78-.67-4.06.48-.98,1.61-1.52,2.7-1.56s2.15.36,3.13.85c3.56,1.76,6.35,4.72,9.07,7.61,6.77,7.21,13.76,14.8,16.54,24.3,2.39-3.58,4.79-7.88,6.29-11.91s2.05-8.58.62-12.64c-1.37-3.92-4.44-7.04-7.84-9.41-3.41-2.37-7.21-4.11-10.81-6.17-.96-.55-2.02-1.27-2.15-2.37-.13-1.11.81-2.12,1.87-2.44,1.07-.32,2.22-.11,3.3.16,5.15,1.28,9.97,3.85,13.91,7.39.1-6.81-1.54-14.07-5.49-19.61-3.96-5.54-10.6-9.39-17.39-8.95-6.34.41-11.72,4.24-16.52,8.62.02-.03.04-.06.05-.09,6.76-11.85,13.9-23.48,21.25-35.03-8.54,10.71-16.36,21.99-23.6,33.63-.3.49-.59.98-.89,1.47.12-1.44.23-2.89.38-4.28.54-5.03,1.04-10.3-.91-14.97-1.64-3.93-4.88-7.01-8.44-9.34-5.82-3.82-12.84-5.96-19.78-5.42-5.72.45-11.19,2.68-16.05,5.72s-8.96,7.16-13.12,11.11c7.58-1.23,15.52-.03,22.4,3.38,1.32.65,2.65,1.42,3.52,2.61.88,1.19,1.2,2.89.43,4.15-.72,1.18-2.22,1.69-3.6,1.62ZM89.06,84.61c-.42.77-1.27,1.24-2.13,1.38s-1.75,0-2.6-.2c-3.41-.82-6.48-2.41-8.25-5.46-1.47-2.53-3.51-6.92.29-8.68,1.8-.83,3.94.02,5.52,1.21,2.52,1.89,4.32,4.54,6.08,7.15.93,1.38,1.89,3.14,1.09,4.59ZM67,100.23c-.82,1.15-1.96,3.06-3.46,3.28-1.66.24-3.29-1.39-3.72-2.85-.57-1.91.03-3.95.74-5.81,1.08-2.82,2.44-5.53,4.01-8.12.48-.79.99-1.59,1.73-2.15s1.75-.84,2.6-.5c1.27.52,1.68,2.1,1.77,3.47.3,4.48-1.05,9.03-3.66,12.67ZM68.99,34.42c.23,1.04.27,2.21-.32,3.1-.74,1.11-2.28,1.45-3.58,1.14-2.28-.53-5.7-2.95-6.57-5.18-.5-1.29-.43-2.8.19-4.04.5-1.01,1.38-1.85,2.47-2.15,1.61-.44,3.32.4,4.56,1.52,1.63,1.47,2.78,3.45,3.25,5.6Z"/>
    </g>
  </g>
</svg>