<?xml version="1.0" encoding="UTF-8"?>
<svg xmlns="http://www.w3.org/2000/svg" viewBox="0 0 548.78 302.6">
  <defs>
    <style>
      .cls-1 {
        fill: #456b4f;
      }

      .cls-1, .cls-2, .cls-3, .cls-4, .cls-5, .cls-6, .cls-7, .cls-8, .cls-9, .cls-10 {
        stroke-width: 0px;
      }

      .cls-11 {
        isolation: isolate;
      }

      .cls-2 {
        fill: #50bfa5;
      }

      .cls-3, .cls-9 {
        fill: #5de0c2;
      }

      .cls-12 {
        opacity: .26;
      }

      .cls-12, .cls-9 {
        mix-blend-mode: screen;
      }

      .cls-4 {
        fill: #65b2b1;
      }

      .cls-5 {
        fill: #5f916b;
      }

      .cls-6 {
        fill: #47a891;
      }

      .cls-7 {
        fill: #98bb58;
      }

      .cls-8 {
        fill: #68803c;
      }

      .cls-9 {
        opacity: .5;
      }

      .cls-10 {
        fill: #376160;
      }
    </style>
  </defs>
  <g class="cls-11">
    <g id="Capa_2" data-name="Capa 2">
      <g id="OBJECTS">
        <g>
          <path class="cls-1" d="M350.58,166.45c-.91,1.26-2.23,2.15-3.5,3.04-7.18,5.07-14.07,11.6-16.09,20.16-2.14,9.08,1.66,19.35,5.33,27.93,3.16-12.21,10.67-23.25,20.88-30.67.63-.46,1.33-.92,2.11-.9,1.25.04,2.14,1.37,2.16,2.62s-.6,2.41-1.2,3.51c-2.98,5.49-5.97,10.98-8.95,16.47-2.06,3.79-4.17,7.75-4.28,12.06-.13,4.63,2.12,9.07,5.22,12.52,3.1,3.45,7.46,5.81,11.32,8.37-3.99-19.23,1.58-40.21,14.58-54.93,1.26-1.43,3.3-2.9,4.87-1.83.97.66,1.19,1.98,1.2,3.15.02,2.91-.73,5.77-1.55,8.57-2.59,8.9-5.88,17.6-9.83,25.98-1.93,4.11-4.08,8.38-3.85,12.92.27,5.5,4.09,10.33,8.76,13.26,4.66,2.93,10.14,5.23,15.49,6.54-2.59-12.84-3.17-26.08-1.73-39.09.62-5.64,1.72-11.46,5.07-16.03.9-1.22,2.24-2.45,3.73-2.15,1.86.38,2.44,2.72,2.55,4.62.44,7.1-.16,14.25-1.77,21.18-1.78,7.68-4.8,15.63-2.62,23.21,2.39,8.31,12.47,13.71,20.99,12.2-7.38-7.89-10.47-19.58-7.93-30.08.4-1.65,1.08-3.45,2.63-4.15,1.94-.87,4.27.57,5.2,2.48.93,1.91.86,4.13.91,6.25.13,5.7,1.26,11.51,4.29,16.33,3.03,4.83,8.17,8.54,13.86,8.87,6.85.4,13.88-4.4,20.51-2.62,1.66-3.87,3.32-7.74,4.97-11.62,2.69-6.28,5.44-12.98,4.43-19.74-1.17-7.85-7.23-14.14-13.91-18.42-6.68-4.29-14.21-7.13-20.86-11.47-1.3-.85-2.71-2.07-2.51-3.61.18-1.4,1.65-2.26,3.03-2.57,3.31-.75,6.74.43,9.83,1.83,10.26,4.67,19.22,12.16,25.63,21.43.18-3.74.92-7.72,1.58-11.41.66-3.68.64-7.75-1.49-10.83-1.8-2.61-4.78-4.08-7.64-5.44-7.77-3.71-15.54-7.42-23.31-11.12-1.97-.94-4.26-2.38-4.14-4.56.12-2.15,2.54-3.36,4.66-3.78,5.51-1.08,11.28.15,16.41,2.45,5.13,2.29,9.72,5.61,14.28,8.9.17-4.57.35-9.19-.54-13.67-.89-4.49-2.95-8.89-6.52-11.75-4.26-3.41-10.03-4.18-15.49-4.18-12.58,0-25.08,3.41-37.62,2.35-1.6-.14-3.41-.48-4.23-1.86-.63-1.05-.45-2.45.19-3.49s1.66-1.8,2.72-2.42c3.84-2.26,8.34-3.08,12.72-3.85,10.94-1.94,22.36-3.86,32.99-.64-1.89-4.45-4.47-9.34-7.34-13.23s-6.8-7.19-11.5-8.34c-4.53-1.11-9.34-.15-13.66,1.6-4.32,1.75-8.29,4.25-12.43,6.38-1.11.57-2.43,1.11-3.55.56-1.12-.56-1.5-2.06-1.14-3.26.36-1.2,1.26-2.15,2.18-3,4.37-4.05,9.73-7.01,15.49-8.54-6.34-4.27-14.17-7.19-21.81-6.87-7.64.32-15.33,4.2-19.08,10.86-3.51,6.22-3.21,13.62-2.04,20.81-.02-.04-.04-.07-.06-.11-6.99-13.63-13.54-27.48-19.89-41.48,4.83,14.6,10.63,28.88,17.13,42.83.28.58.55,1.16.83,1.74-1.28-.99-2.57-1.99-3.79-2.98-4.4-3.59-9.05-7.3-14.63-8.34-4.7-.87-9.58.28-13.96,2.2-7.16,3.13-13.48,8.41-17.23,15.27-3.09,5.65-4.35,12.16-4.48,18.6s1.23,12.82,2.39,19.15c3.5-7.87,9.5-14.61,16.93-18.98,1.43-.84,2.96-1.61,4.61-1.71,1.65-.1,3.46.64,4.17,2.14.67,1.4.23,3.13-.69,4.38ZM426.36,163.19c.46.87.39,1.95,0,2.85-.39.9-1.07,1.65-1.79,2.33-2.86,2.7-6.25,4.61-10.2,4.41-3.28-.17-8.66-.94-7.98-5.6.32-2.2,2.44-3.69,4.53-4.45,3.32-1.21,6.93-1.28,10.46-1.33,1.86-.03,4.11.15,4.99,1.79ZM427.5,193.52c.57,1.48,1.67,3.72.96,5.26-.79,1.71-3.32,2.24-4.96,1.75-2.14-.64-3.7-2.45-5.01-4.26-1.99-2.75-3.7-5.69-5.17-8.75-.45-.93-.88-1.91-.96-2.94-.07-1.03.28-2.16,1.13-2.75,1.26-.88,3.01-.29,4.35.46,4.39,2.47,7.84,6.53,9.66,11.22ZM366.86,151.25c1.12.43,2.24,1.1,2.72,2.2.59,1.37-.04,3.03-1.12,4.07-1.9,1.82-6.27,3.55-8.9,3-1.52-.32-2.89-1.31-3.68-2.65-.64-1.09-.89-2.44-.5-3.64.58-1.79,2.42-2.87,4.23-3.35,2.38-.63,4.96-.5,7.25.38Z"/>
          <path class="cls-1" d="M399.4,78.35l11.19,2.39,1.86.45,4.74,6.76c6.2,19.89,16.46,38.72,31.99,52.57.7-22.14-12.05-44.14-31.52-54.66l-2.59-4.04,6.63,1.59,11.03,3,3.24.97c1.51,1.53,2.99,3.09,4.46,4.66,7.5,19.72,19.08,38.13,35.71,51.08-.76-21.92-14.68-42.83-34.49-52.17-.74-.85-1.48-1.7-2.23-2.54l4.27,1.28c3.62,1.2,7.23,2.43,10.85,3.61l10.76,3.89c1.3.52,2.61,1.04,3.92,1.55l6.15,7.68c7.51,19.54,19.03,37.76,35.53,50.6-.77-22.18-15.02-43.32-35.21-52.49l-3.3-4.56c1.19.46,2.38.93,3.57,1.39,5.1,2.09,10.17,4.28,15.19,6.57,14.52,15.02,32.23,27.26,52.39,32.63-9.22-19.79-30.04-33.57-51.81-34.55-4.85-2.48-9.76-4.84-14.74-7.06-3.53-1.52-7.06-3.04-10.61-4.52l-3.19-1.23,3.54-.37c20.81,7.06,45.42,1.61,61.19-13.74-21.01-2.16-42.17,3.14-61.26,12.23l-7.31.4-3.75-1.44c-3.63-1.27-7.28-2.49-10.91-3.74l-11.03-3.38-4.06-1.08c1.99-.47,3.98-.92,5.98-1.36,20.89,7.26,45.71,1.84,61.57-13.6-20.82-2.15-41.78,3.05-60.74,11.98-3.54.6-7.08,1.26-10.61,1.97l-3.3-.88-11.24-2.59-11.33-2.17c-2.41-.39-4.83-.77-7.25-1.14l4.33-1.24c21.21,4.98,44.98-2.59,59.24-19.11-21.36-.34-42.2,6.95-60.58,17.86l-7.51,1.78v.03c-15.1-2.05-30.35-3.04-45.55-2.71,15.29,1.07,30.49,2.8,45.53,5.36l.38.07,2.28,3.11c6.13,20.57,16.54,40.15,32.56,54.42.69-21.7-11.55-43.26-30.37-54.01l-1.96-3.05,2.74.51,5.63,1.02Z"/>
          <path class="cls-1" d="M177.71,134.36l7.96,8.21,1.3,1.41.17,8.25c-5.92,19.97-7.89,41.33-2.69,61.48,12.91-18,14.57-43.37,4.25-62.95l.1-4.8,4.62,5.01,7.49,8.64,2.15,2.61c.4,2.11.77,4.23,1.11,6.36-4.75,20.55-5.39,42.3,1.22,62.31,11.57-18.63,11.65-43.75.39-62.54-.14-1.12-.29-2.24-.44-3.35l2.83,3.43c2.34,3.01,4.65,6.04,7.01,9.04l6.77,9.22c.79,1.16,1.59,2.31,2.39,3.47l.83,9.81c-4.64,20.41-5.22,41.96,1.34,61.82,11.71-18.86,11.64-44.35-.02-63.21l-.2-5.62c.73,1.05,1.46,2.1,2.19,3.14,3.08,4.58,6.06,9.22,8.96,13.91,3.7,20.56,11.59,40.59,25.35,56.28,3.36-21.57-6.26-44.61-23.8-57.55-2.65-4.76-5.42-9.45-8.31-14.07-2.08-3.23-4.18-6.45-6.3-9.66l-1.96-2.79,3.15,1.67c13.35,17.45,36.84,26.63,58.48,22.66-16.25-13.5-36.78-20.87-57.69-23.95l-6.3-3.74-2.31-3.28c-2.31-3.08-4.66-6.12-6.98-9.18l-7.28-8.95-2.77-3.16c1.91.72,3.82,1.45,5.73,2.2,13.31,17.66,36.95,26.98,58.72,22.98-16.1-13.38-36.41-20.73-57.13-23.86-3.28-1.47-6.58-2.89-9.91-4.27l-2.25-2.56-7.89-8.41-8.2-8.11c-1.79-1.67-3.59-3.33-5.39-4.98l4.29,1.38c14.84,15.95,38.81,22.89,59.85,17.11-17.55-12.18-38.92-17.72-60.27-18.9l-7.23-2.7v.03c-11.42-10.12-23.54-19.43-36.35-27.62,12.11,9.4,23.77,19.3,34.84,29.8l.27.27.16,3.85c-6.36,20.5-8.61,42.56-3.25,63.34,12.66-17.64,14.49-42.37,4.85-61.78l.07-3.62,1.99,1.95,4.11,3.98Z"/>
          <g>
            <path class="cls-4" d="M312.93,212.33c10.35,20.15,7.94,46.2-5.95,64.09-4.64-21.28-1.41-43.6,5.95-64.09Z"/>
            <path class="cls-4" d="M307.91,198.24c1.67,22.59-10.73,45.63-30.5,56.69,4.03-21.4,15.72-40.69,30.5-56.69Z"/>
            <path class="cls-4" d="M314.02,184.37c2.54,22.51,18.99,42.86,40.46,50.06-7.92-20.29-22.98-37.07-40.46-50.06Z"/>
            <path class="cls-4" d="M310.6,151.53c2.54,22.51,18.99,42.86,40.46,50.06-7.92-20.29-22.98-37.07-40.46-50.06Z"/>
            <path class="cls-4" d="M299.42,112.84c4.48,22.2,22.63,41.05,44.65,46.37-9.65-19.52-26.11-34.94-44.65-46.37Z"/>
            <path class="cls-4" d="M304.37,160.99c1.67,22.59-10.73,45.63-30.5,56.69,4.03-21.4,15.72-40.69,30.5-56.69Z"/>
            <path class="cls-4" d="M298.07,137.97c.16,22.65-13.74,44.82-34.2,54.53,5.45-21.09,18.4-39.55,34.2-54.53Z"/>
            <path class="cls-4" d="M292.15,111.97c.16,22.65-13.74,44.82-34.2,54.53,5.45-21.09,18.4-39.55,34.2-54.53Z"/>
            <path class="cls-10" d="M312.54,244.22c.18-15.33-.3-30.61-1.62-45.82-.4-3.8-.79-7.59-1.15-11.38l-1.46-11.34c-.61-3.76-1.17-7.53-1.76-11.3l-2.1-11.24-2.37-11.18-2.71-11.11-3-11.04-1.67-5.47-1.63-5.48c-4.61-14.55-10.02-28.85-16.06-42.94,7.31,13.48,13.45,27.61,18.56,42.11,1.23,3.64,2.45,7.29,3.64,10.94l3.25,11.07,2.84,11.18,2.47,11.27,2.04,11.36c.55,3.81,1.13,7.61,1.67,11.42l1.24,11.47c.3,3.83.57,7.67.83,11.5.84,15.35.58,30.75-.99,46.01Z"/>
            <polygon class="cls-10" points="294.49 226.24 310.96 189.45 312.7 190.28 294.49 226.24"/>
            <path class="cls-10" d="M285.3,201.27c8.22-14.63,14.98-30.04,20.15-45.94l1.82.63c-5.82,15.81-13.19,31.01-21.97,45.31Z"/>
            <polygon class="cls-10" points="278.99 172.28 300.45 131.49 302.14 132.42 278.99 172.28"/>
            <polygon class="cls-10" points="279.54 136.43 293.65 108.25 295.35 109.17 279.54 136.43"/>
            <polygon class="cls-10" points="331.59 212.85 309.54 179.03 311.18 178.02 331.59 212.85"/>
            <path class="cls-10" d="M331.37,180.47c-8.52-12.5-17.78-24.47-27.72-35.83l1.48-1.24c9.5,11.83,18.26,24.21,26.24,37.06Z"/>
            <polygon class="cls-10" points="323.15 139.97 294.02 108.92 295.46 107.63 323.15 139.97"/>
          </g>
          <g>
            <g>
              <path class="cls-7" d="M359.51,43.87c-.69-1.65.02-3.62,1.29-4.87,1.27-1.25,2.99-1.93,4.69-2.46,8.84-2.79,18.55-2.75,27.37.11-4.24-5.48-8.37-11.16-13.61-15.69-5.24-4.53-11.36-8.2-18.11-9.8-8.19-1.94-16.96-.68-24.62,2.8-4.68,2.13-9.12,5.2-11.8,9.59-3.19,5.21-3.56,11.6-3.85,17.71-.14,3.02-.46,6.23-.61,9.24-5.72-7.71-12.3-15.89-21.67-17.97-8.03-1.79-16.67,1.58-22.42,7.46-5.75,5.88-9.05,14.25-10.19,22.4,5.36-3.5,11.6-5.67,17.98-6.25,1.34-.12,2.75-.16,3.97.42s2.15,1.96,1.79,3.26c-.36,1.29-1.75,1.96-3,2.43-4.69,1.79-9.54,3.16-14.05,5.36-4.51,2.2-8.74,5.36-11.11,9.78-2.45,4.59-2.65,10.11-1.6,15.2,1.05,5.09,3.11,10.67,5.31,15.39,5.07-10.82,14.83-18.59,24.25-25.94,3.78-2.95,7.67-5.96,12.24-7.41,1.26-.4,2.6-.67,3.89-.43,1.3.24,2.54,1.1,2.93,2.36.51,1.65-.52,3.35-1.56,4.72-8.17,10.8-19.89,18.35-28.94,28.42-3.92,4.36-7.46,9.54-7.8,15.4-.28,4.91,1.76,9.73,4.71,13.67,2.95,3.94,6.77,7.12,10.55,10.27.64-6.01,1.3-12.07,3.15-17.83,1.85-5.75,5.02-11.25,9.85-14.89,1.86-1.4,4.56-2.46,6.37-1.01,1.83,1.47,1.34,4.34.67,6.59-2.62,8.88-5.25,17.77-7.87,26.65-.96,3.27-1.94,6.72-1.14,10.03.94,3.92,4.18,6.86,7.6,8.98s7.14,4.4,10.27,6.94c-2.81-11.8-2.36-24.36,1.29-35.93,1.1-3.48,2.63-7.07,5.61-9.18,1.24-.88,2.98-1.44,4.23-.58,1.38.94,1.34,2.96,1.08,4.61-1.31,8.44-4.45,16.51-5.83,24.94-1.38,8.43-.71,17.8,4.73,24.39,4.69,5.67,12.02,8.29,18.99,10.66,4.29,1.46,8.58,2.92,12.87,4.38,3.35-6.58,12.25-8.75,16.85-14.52,3.82-4.79,4.55-11.58,2.87-17.48-1.68-5.9-5.51-10.99-9.98-15.19-1.67-1.57-3.49-3.11-4.35-5.23-.86-2.12-.33-5.01,1.75-5.94,1.67-.74,3.6,0,5.21.88,10.23,5.53,17.36,16.41,18.37,27.99,7.34-5.73,10.27-17.68,5.34-25.58-4.5-7.2-13.03-10.5-20.46-14.6-6.7-3.7-12.86-8.37-18.22-13.82-1.43-1.46-2.9-3.61-1.86-5.37.83-1.41,2.78-1.6,4.4-1.44,6.07.61,11.52,3.92,16.48,7.48,11.45,8.21,21.62,18.21,30.04,29.51,2.79-5.23,4.9-11.26,5.91-17.1,1.01-5.84-.1-12.37-4.31-16.55-3.47-3.44-8.43-4.8-13.11-6.21-9.55-2.87-18.88-6.5-27.87-10.83-2.82-1.36-5.65-2.82-7.97-4.93-.93-.85-1.83-1.98-1.66-3.23.28-2.03,2.92-2.6,4.97-2.58,21.13.19,41.93,10.82,54.45,27.85.73-4.93,1.97-10.12,1.44-15.08-.53-4.96-2.47-9.95-6.26-13.18-3.53-3.01-8.22-4.17-12.73-5.25-6.54-1.56-13.08-3.12-19.62-4.69-1.31-.31-2.68-.66-3.67-1.57s-1.42-2.58-.55-3.61c.54-.64,1.42-.87,2.24-1.04,13.28-2.83,27.52-.9,39.56,5.36-4.22-9.11-9.7-19.54-18.51-24.36-8.3-4.54-18.48-3.73-27.71-1.63-1.63.37-3.29.78-4.95.61-1.66-.17-3.36-1.06-4-2.6ZM322.69,102.08c-2.68,3.31-6.64,4.65-10.86,4.99-1.06.09-2.14.09-3.15-.24-1.01-.33-1.93-1.05-2.29-2.05-.68-1.89.79-3.81,2.15-5.28,2.58-2.79,5.23-5.62,8.59-7.41,2.11-1.13,4.83-1.75,6.82-.43,4.21,2.81.96,7.67-1.26,10.41ZM338.52,122.28c.51,2.35.84,4.9-.19,7.07-.79,1.66-3.04,3.31-4.97,2.71-1.75-.54-2.75-3.03-3.52-4.55-2.45-4.83-3.21-10.51-2.03-15.8.36-1.62,1.14-3.44,2.76-3.81,1.09-.26,2.24.27,3.01,1.07.77.8,1.24,1.85,1.66,2.88,1.39,3.38,2.51,6.86,3.28,10.43ZM352.83,44.54c.51,1.6.31,3.4-.53,4.85-1.44,2.51-5.97,4.76-8.8,4.97-1.61.12-3.39-.57-4.06-2.03-.54-1.17-.27-2.55.19-3.76.95-2.47,2.7-4.63,4.92-6.08,1.69-1.1,3.88-1.79,5.73-.97,1.24.55,2.14,1.73,2.55,3.02Z"/>
              <path class="cls-8" d="M326.01,60.11l2.56,6.71c18.78-10.93,41.27-14.95,62.41-11.31-21.41-2.87-43.63,2.11-61.57,13.61l2.64,7.52c19.27-4.13,39.76-1.4,57.06,7.45-17.57-8.11-37.79-9.9-56.27-5.21l.17.47,3.86,11.82.26.87c20.69,2.16,40.43,11.22,55.39,25.28-15.26-13.27-34.77-21.35-54.67-22.85l2.55,8.62c1.09,4,2.21,7.99,3.27,11.99l2.17,8.9c13.23,3.65,25.69,9.77,36.55,17.9-10.98-7.25-23.22-12.44-35.92-15.3l.14.58c.91,4.04,1.78,8.09,2.64,12.14.81,3.98,1.57,7.97,2.28,11.97,6.71,5.59,12.31,12.39,16.46,19.9-4.36-6.4-9.77-12.01-15.88-16.55,1.91,11.21,3.4,22.48,4.36,33.79-3.1-16.05-6.45-32.01-10.29-47.83-8.83,9.25-13.87,22.31-13.32,35.42-1.36-13.55,3.28-27.74,12.65-38.09-.84-3.29-1.68-6.58-2.48-9.87l-3.21-11.93c-1.15-3.95-2.25-7.92-3.37-11.88l-1.56-5.12c-15.41,11.76-25.82,30.21-27.75,49.85,1.17-20.01,11.14-39.49,27.01-52.29l-1.29-4.25-2.97-9.33c-13.58,5.06-25.9,13.81-35.2,25.2,8.73-11.91,20.75-21.49,34.5-27.42l-.07-.21-3.8-11.2c-14.19-4.27-30.46-1.96-43.1,6.47,11.77-8.76,27.51-12.19,42.18-9.08l-3.15-8.88c-10.46-6.88-23.18-10.52-35.94-10.1,11.79-1.11,23.97,1.25,34.69,6.75-1.11-2.95-2.21-5.91-3.3-8.87-5.88-15.39-12.25-30.61-18.88-45.76,8.21,14.36,15.46,29.28,21.95,44.52,1.59,3.82,3.17,7.65,4.72,11.5l.39,1.01c3.29-6.88,8-13.01,13.65-18,6.63-5.86,14.6-10.19,23.1-12.35-8.4,2.55-16.05,7.2-22.28,13.24-5.87,5.69-10.49,12.63-13.29,20.2Z"/>
            </g>
            <g class="cls-12">
              <path class="cls-7" d="M362.27,153.07c-.15-.55-.72-.88-1.28-.73-.55.15-.88.72-.73,1.28.15.55.72.88,1.28.73.55-.15.88-.72.73-1.28Z"/>
              <path class="cls-7" d="M360.91,169.94c-.14-.52-.67-.82-1.19-.68-.52.14-.82.67-.68,1.19s.67.82,1.19.68c.52-.14.82-.67.68-1.19Z"/>
              <path class="cls-7" d="M345.34,163.93c-.27-.99-1.29-1.58-2.29-1.32-.99.27-1.58,1.29-1.32,2.29s1.29,1.58,2.29,1.32c.99-.27,1.58-1.29,1.32-2.29Z"/>
              <path class="cls-7" d="M361.96,136.87c-.36-1.32-1.72-2.1-3.04-1.75-1.32.36-2.1,1.72-1.75,3.04.36,1.32,1.72,2.11,3.04,1.75,1.32-.36,2.1-1.72,1.75-3.04Z"/>
              <path class="cls-7" d="M334.98,141.91c-.12-.46-.6-.73-1.06-.61s-.73.6-.61,1.06.6.73,1.06.61c.46-.12.73-.6.61-1.06Z"/>
              <path class="cls-7" d="M348.75,101.76c-.17-.63-.82-1.01-1.46-.84-.63.17-1.01.82-.84,1.46.17.63.82,1.01,1.46.84.63-.17,1.01-.82.84-1.46Z"/>
              <path class="cls-7" d="M349.65,117.29c-.09-.32-.41-.51-.73-.42s-.51.41-.42.73c.09.32.41.51.73.42s.51-.41.42-.73Z"/>
              <path class="cls-7" d="M358.16,122.77c-.09-.33-.43-.53-.76-.44-.33.09-.53.43-.44.76.09.33.43.53.76.44.33-.09.53-.43.44-.76Z"/>
              <path class="cls-7" d="M322.37,122.67c-.19-.69-.9-1.11-1.6-.92-.69.19-1.11.9-.92,1.6.19.69.9,1.11,1.6.92.69-.19,1.11-.9.92-1.6Z"/>
              <path class="cls-7" d="M310.61,113.04c-.14-.52-.67-.82-1.19-.68-.52.14-.82.67-.68,1.19s.67.82,1.19.68.82-.67.68-1.19Z"/>
              <path class="cls-7" d="M344.91,83.1c-.17-.62-.81-.99-1.43-.82-.62.17-.99.81-.82,1.43.17.62.81.99,1.43.82.62-.17.99-.81.82-1.43Z"/>
              <path class="cls-7" d="M353.9,89.53c-.07-.27-.35-.43-.62-.36s-.43.35-.36.62.35.43.62.36c.27-.07.43-.35.36-.62Z"/>
              <path class="cls-7" d="M391.08,123.53c-.12-.45-.58-.72-1.03-.59-.45.12-.72.58-.59,1.03.12.45.58.72,1.03.59.45-.12.72-.58.59-1.03Z"/>
              <path class="cls-7" d="M401.8,120.64c-.12-.45-.58-.72-1.03-.59s-.72.58-.59,1.03c.12.45.58.72,1.03.59s.72-.58.59-1.03Z"/>
              <path class="cls-7" d="M394.09,110.29c-.11-.4-.52-.63-.91-.52s-.63.52-.52.91c.11.4.51.63.91.52.4-.11.63-.52.52-.91Z"/>
              <path class="cls-7" d="M398.95,85.08c-.12-.44-.57-.7-1-.58-.44.12-.7.57-.58,1s.57.7,1,.58c.44-.12.7-.57.58-1Z"/>
              <path class="cls-7" d="M347.89,69.59c-.13-.48-.62-.76-1.09-.63-.48.13-.76.62-.63,1.09.13.48.62.76,1.09.63.48-.13.76-.62.63-1.09Z"/>
              <path class="cls-7" d="M363.87,70.57c-.05-.19-.24-.29-.43-.24-.19.05-.29.24-.24.43s.24.29.43.24c.18-.05.29-.24.24-.43Z"/>
              <path class="cls-7" d="M359.59,63.46c-.11-.43-.55-.68-.98-.56-.42.11-.68.55-.56.98.11.42.55.68.98.56.42-.11.68-.55.56-.98Z"/>
              <path class="cls-7" d="M358.9,51.25c-.12-.46-.59-.73-1.05-.61-.46.12-.73.59-.61,1.05.12.46.59.73,1.05.61.46-.12.73-.59.61-1.05Z"/>
              <path class="cls-7" d="M334.27,57.17c-.1-.37-.48-.59-.85-.49-.37.1-.59.48-.49.85s.48.59.85.49.59-.48.49-.85Z"/>
              <path class="cls-7" d="M355.09,37.11c-.06-.23-.3-.36-.53-.3-.23.06-.36.3-.3.53.06.23.3.36.53.3.23-.06.36-.3.3-.53Z"/>
              <path class="cls-7" d="M338.08,29.77c-.06-.24-.31-.38-.55-.31-.24.06-.38.31-.31.55.06.24.31.38.55.31.24-.06.38-.31.31-.55Z"/>
              <path class="cls-7" d="M330.51,38.64c-.09-.32-.41-.5-.73-.42-.32.09-.5.41-.42.73s.41.5.73.42.5-.41.42-.73Z"/>
              <path class="cls-7" d="M335.15,25.37c-.13-.48-.62-.76-1.09-.63-.48.13-.76.62-.63,1.09.13.48.62.76,1.09.63s.76-.62.63-1.09Z"/>
              <path class="cls-7" d="M348.5,26.73c-.03-.12-.15-.19-.27-.16-.12.03-.19.15-.16.27.03.12.15.19.27.16.12-.03.19-.15.16-.27Z"/>
              <path class="cls-7" d="M317.11,75.59c-.19-.7-.91-1.12-1.62-.93s-1.12.91-.93,1.62c.19.7.91,1.12,1.62.93.7-.19,1.12-.91.93-1.62Z"/>
              <path class="cls-7" d="M313.63,84.52c-.11-.4-.52-.63-.91-.52-.4.11-.63.52-.52.91s.51.63.91.52c.4-.11.63-.52.52-.91Z"/>
              <path class="cls-7" d="M324.15,79.74c-.16-.61-.79-.97-1.4-.8-.61.16-.97.79-.8,1.4.16.61.79.97,1.4.8.61-.16.97-.79.8-1.4Z"/>
              <path class="cls-7" d="M314.74,70.11c-.13-.47-.61-.75-1.09-.63-.47.13-.75.61-.63,1.09s.61.75,1.09.63.75-.61.63-1.09Z"/>
              <path class="cls-7" d="M304.81,57.49c-.19-.69-.9-1.11-1.6-.92-.69.19-1.11.9-.92,1.6.19.69.9,1.11,1.6.92.69-.19,1.11-.9.92-1.6Z"/>
              <path class="cls-7" d="M315.9,60.8c-.08-.31-.4-.49-.71-.41-.31.08-.49.4-.41.71.08.31.4.49.71.41.31-.08.49-.4.41-.71Z"/>
              <path class="cls-7" d="M308.1,61.85c-.15-.54-.71-.87-1.25-.72-.54.15-.87.71-.72,1.25.15.54.71.87,1.25.72.54-.15.87-.71.72-1.25Z"/>
              <path class="cls-7" d="M297.41,40.06c-.16-.58-.76-.93-1.34-.77-.58.16-.93.76-.77,1.34.16.58.76.93,1.34.77s.93-.76.77-1.34Z"/>
              <path class="cls-7" d="M307.9,44.73c.09.32.41.5.73.42.32-.09.5-.41.42-.73s-.41-.5-.73-.42c-.32.09-.5.41-.42.73Z"/>
              <path class="cls-7" d="M275.8,83.37c-.26-.95-1.23-1.51-2.18-1.26-.95.26-1.51,1.23-1.26,2.18.26.95,1.23,1.51,2.18,1.26.95-.26,1.51-1.23,1.26-2.18Z"/>
              <path class="cls-7" d="M285.1,79.94c-.13-.47-.62-.76-1.09-.63-.47.13-.76.62-.63,1.09.13.47.62.76,1.09.63.47-.13.76-.62.63-1.09Z"/>
              <path class="cls-7" d="M278.56,70.86c-.08-.31-.4-.49-.71-.41-.31.08-.49.4-.41.71.08.31.4.49.71.41s.49-.4.41-.71Z"/>
              <path class="cls-7" d="M282.48,117.85c-.07-.28-.36-.44-.64-.37-.28.07-.44.36-.37.64.07.28.36.44.64.37.28-.07.44-.36.37-.64Z"/>
              <path class="cls-7" d="M294.54,114.98c.14-.25.06-.57-.19-.71s-.57-.06-.71.19c-.14.25-.06.57.19.71s.57.06.71-.19Z"/>
              <path class="cls-7" d="M329.38,159.06c-.25-.93-1.2-1.47-2.13-1.22-.93.25-1.47,1.2-1.22,2.13.25.93,1.2,1.47,2.13,1.22.93-.25,1.47-1.2,1.22-2.13Z"/>
              <path class="cls-7" d="M326.89,173.45c-.07-.26-.34-.41-.59-.34-.26.07-.41.34-.34.59s.34.41.59.34c.26-.07.41-.34.34-.59Z"/>
              <path class="cls-7" d="M308.76,157.06c-.2-.74-.96-1.18-1.7-.98-.74.2-1.18.96-.98,1.7.2.74.96,1.18,1.7.98.74-.2,1.18-.96.98-1.7Z"/>
              <path class="cls-7" d="M310.66,164.1s-.3.08-.67.18c-.37.1-.67.18-.67.18,0,0,.3-.08.67-.18.37-.1.67-.18.67-.18Z"/>
            </g>
          </g>
          <g>
            <path class="cls-2" d="M258.05,193.81c-15.51-13.25-36.61-17.21-55.58-24.73-13.5-5.36-26.41-12.86-36.19-23.6-9.78-10.74-16.21-24.98-15.65-39.5.56-14.52,8.86-28.97,22.06-35.04,13.2-6.07,30.78-2.15,38.71,10.01,3.15-9.63,8.94-21.14,15-29.27,6.06-8.12,15.37-14.47,25.5-14.46,14.54,0,26.39,13.16,29.91,27.27,3.52,14.11.67,28.93-2.18,43.19-5.84,29.17-15.75,56.97-21.59,86.13Z"/>
            <path class="cls-6" d="M254.04,68.57c-15.22,6.78-28.05,18.95-35.73,33.74-1.09-3.36-2.05-6.66-2.89-9.91,4.48-16.44,15.25-31.18,29.55-40.44,6.84-4.43,14.49-7.6,22.45-9.42-1.02-.74-2.07-1.42-3.16-2.02-7.35,1.96-14.4,5.03-20.77,9.15-13.55,8.77-24.05,22.28-29.32,37.54-.7-3.13-1.27-6.2-1.73-9.22-.37,1-.71,1.98-1.03,2.95-.5-.76-1.03-1.49-1.6-2.19.56,3.59,1.26,7.25,2.14,10.98-13.54-7.98-31.36-8.81-45.46-1.87-5.82,2.87-10.98,7.06-15.17,12.08-.33,1.77-.54,3.55-.64,5.34,4.33-6.33,10.19-11.62,17.01-14.98,14.12-6.96,32.22-5.64,45.21,3.25.94,3.58,2.03,7.23,3.26,10.95-15.2-3.19-31.64.24-44.28,9.29-6.33,4.54-11.63,10.44-15.57,17.13.48.96.98,1.91,1.51,2.84,3.83-6.97,9.17-13.12,15.65-17.76,12.43-8.91,28.73-12.09,43.6-8.51l.05-.19c1.05,3.02,2.2,6.09,3.45,9.21-12.64,1.17-24.71,6.38-34.24,14.81-6.16,5.45-11.11,12.13-14.57,19.51.7.63,1.41,1.24,2.14,1.84,3.32-7.33,8.16-13.94,14.24-19.31,9.3-8.23,21.15-13.23,33.51-14.2.75,1.82,1.53,3.65,2.35,5.51,1.03,2.33,2.09,4.66,3.18,6.98-11.68,1.17-22.95,6.41-31.32,14.63-4.25,4.18-7.74,9.14-10.32,14.52.78.46,1.57.92,2.36,1.36,2.46-5.17,5.79-9.93,9.87-13.94,8.16-8.03,19.24-13.05,30.65-13.96,1.45,3.05,2.93,6.08,4.42,9.09-9.19,1.95-17.61,7.27-23.3,14.76-2.6,3.42-4.6,7.28-5.96,11.35.84.33,1.69.65,2.54.97,1.26-3.83,3.15-7.45,5.59-10.67,5.44-7.16,13.56-12.18,22.39-13.87,1.56,3.11,3.12,6.19,4.66,9.24.32.63.64,1.27.96,1.9-6.64,3.81-12.01,9.67-15.21,16.64-.4.88-.77,1.78-1.1,2.69.86.29,1.72.59,2.58.88.3-.82.63-1.64,1-2.44,2.94-6.41,7.87-11.82,13.96-15.35,5.42,10.72,10.85,21.69,15.44,32.94.56.45,1.13.9,1.68,1.38.2-.99.41-1.97.62-2.95-3.89-9.46-8.34-18.71-12.88-27.77,6.32-2.09,13.3-2.09,19.74-.24.24-.87.47-1.75.71-2.62-7.07-2.02-14.76-1.97-21.68.41-1.13-2.25-2.26-4.48-3.39-6.71-1.12-2.21-2.25-4.44-3.38-6.68,10.05-4.69,21.94-5.3,32.59-2.06.24-.87.48-1.75.72-2.62-11.29-3.4-23.88-2.74-34.53,2.25-2.16-4.32-4.31-8.68-6.38-13.07v-.29c-.05,0-.09,0-.13,0-.44-.93-.87-1.87-1.3-2.8,7.86-7.03,18.35-11.17,28.89-11.39,6.5-.13,13.03,1.24,19,3.87.21-.9.43-1.79.64-2.69-6.21-2.66-12.97-4.04-19.7-3.91-10.9.22-21.74,4.41-30.01,11.52-.37-.83-.75-1.65-1.11-2.48-.88-2.01-1.73-4-2.54-5.97,8.78-12.73,21.44-22.95,35.76-28.8,8.01-3.27,15.47-4.7,22.17-4.24.46.03.91.07,1.36.12.07-.91.12-1.81.16-2.72-.44-.05-.89-.09-1.33-.12-7.12-.49-14.99,1-23.39,4.44-14.25,5.83-26.91,15.82-35.94,28.31-1.15-2.92-2.22-5.8-3.2-8.64,7.22-15.33,20.14-28.02,35.62-34.91,8.4-3.74,17.57-5.79,26.79-6.09-.04-.16-.07-.32-.11-.48-.18-.74-.4-1.47-.63-2.2-9.35.39-18.64,2.5-27.16,6.29Z"/>
            <g>
              <path class="cls-3" d="M264.26,40.53c1.09.6,2.14,1.28,3.15,2.02-1.02-.74-2.07-1.42-3.15-2.02Z"/>
              <path class="cls-3" d="M211.41,80.95h0s0-.03.01-.04c0,.01,0,.03-.01.04Z"/>
              <path class="cls-3" d="M156.31,130.95c3.95-6.69,9.24-12.59,15.57-17.13,12.64-9.06,29.07-12.48,44.28-9.29-1.23-3.72-2.32-7.37-3.26-10.95-12.99-8.89-31.09-10.21-45.21-3.25-6.83,3.36-12.68,8.65-17.01,14.98.1-1.79.31-3.58.64-5.34,4.19-5.02,9.34-9.21,15.17-12.08,14.1-6.95,31.93-6.11,45.46,1.87-.88-3.73-1.59-7.39-2.14-10.98-8.52-10.43-24.74-13.51-37.11-7.82-13.2,6.07-21.49,20.53-22.06,35.04-.36,9.17,2.08,18.24,6.39,26.38-.25-.47-.49-.94-.72-1.41Z"/>
              <path class="cls-3" d="M267.42,42.55c-7.96,1.82-15.61,4.99-22.45,9.42-14.31,9.26-25.08,24-29.55,40.44.84,3.24,1.8,6.55,2.89,9.91,7.68-14.79,20.52-26.96,35.73-33.74,8.52-3.8,17.81-5.91,27.16-6.29-2.43-7.77-7.35-15.04-13.78-19.73Z"/>
              <path class="cls-3" d="M219.53,105.97c.98,2.84,2.04,5.72,3.2,8.64,9.03-12.48,21.69-22.48,35.94-28.31,8.4-3.44,16.27-4.93,23.39-4.44.45.03.89.07,1.33.12.24-5.73-.11-11.43-1.45-17.02-9.22.3-18.39,2.35-26.79,6.09-15.48,6.9-28.4,19.58-35.62,34.91Z"/>
              <path class="cls-3" d="M211.28,80.76c-.21-.31-.42-.63-.64-.93.22.3.43.61.64.93Z"/>
              <path class="cls-3" d="M210.55,79.72c-.24-.33-.49-.65-.74-.96.26.31.5.63.74.96Z"/>
              <path class="cls-3" d="M281.82,64.49s.01.06.02.09c0-.03-.01-.06-.02-.09,0,0,0,0,0,0,0,0,0,0,0,0Z"/>
              <path class="cls-3" d="M283.23,84.71c-.45-.05-.91-.09-1.36-.12-6.7-.46-14.16.97-22.17,4.24-14.31,5.85-26.97,16.07-35.76,28.8.81,1.97,1.65,3.96,2.54,5.97.36.83.74,1.65,1.11,2.48,8.26-7.11,19.11-11.3,30.01-11.52,6.73-.14,13.49,1.25,19.7,3.91-.21.88-.42,1.77-.63,2.65,1.07-4.46,2.08-8.93,2.98-13.44,1.69-8.45,3.38-17.1,3.74-25.68-.04.91-.09,1.81-.16,2.72Z"/>
              <path class="cls-3" d="M258.05,193.81s0,0,0,0c0,0,0,0,0,0,.12-.59.25-1.17.37-1.76-.12.59-.25,1.17-.37,1.76Z"/>
              <path class="cls-3" d="M281.52,63.36c-.1-.36-.21-.71-.32-1.07.11.36.22.71.32,1.07Z"/>
              <path class="cls-3" d="M256.38,192.43c-4.59-11.24-10.02-22.22-15.44-32.94-6.09,3.53-11.02,8.93-13.96,15.35-.37.8-.7,1.62-1,2.44,10.9,3.78,21.49,8.08,30.41,15.15,0,0,0,0,0,0Z"/>
              <path class="cls-3" d="M258.67,190.86c1.98-9.44,4.36-18.75,6.86-28.02,0,0,0,0,0,.01-6.43-1.85-13.42-1.84-19.74.24,4.54,9.06,8.99,18.31,12.88,27.77Z"/>
            </g>
            <path class="cls-9" d="M242.45,65.56c.22.56-.06,1.2-.63,1.42-.56.22-1.2-.06-1.42-.63-.22-.56.06-1.2.63-1.42.56-.22,1.2.06,1.42.63Z"/>
            <path class="cls-9" d="M233.62,75.87c.17.43-.05.92-.48,1.08-.43.17-.92-.05-1.08-.48s.05-.92.48-1.08.92.05,1.08.48Z"/>
            <path class="cls-9" d="M196.38,94.51c.23.6-.07,1.27-.66,1.5-.6.23-1.27-.07-1.5-.66-.23-.6.07-1.27.66-1.5.6-.23,1.27.07,1.5.66Z"/>
            <path class="cls-9" d="M179.77,100.41c.13.34-.04.72-.38.85-.34.13-.72-.04-.85-.38-.13-.34.04-.72.38-.85.34-.13.72.04.85.38Z"/>
            <path class="cls-9" d="M194.95,75.06c.23.59-.06,1.25-.65,1.48-.59.23-1.25-.06-1.48-.65-.23-.59.06-1.25.65-1.48.59-.23,1.25.06,1.48.65Z"/>
            <path class="cls-9" d="M193.32,116.12c.24.62-.07,1.32-.69,1.56-.62.24-1.32-.07-1.56-.69-.24-.62.07-1.32.69-1.56.62-.24,1.32.07,1.56.69Z"/>
            <path class="cls-9" d="M210.39,111.97c.22.57-.06,1.21-.63,1.43-.57.22-1.21-.06-1.43-.63-.22-.57.06-1.21.63-1.43s1.21.06,1.43.63Z"/>
            <path class="cls-9" d="M207.7,131.54c-.38.87-1.39,1.26-2.26.88-.87-.38-1.26-1.39-.88-2.26s1.39-1.26,2.26-.88c.87.38,1.26,1.39.88,2.26Z"/>
            <path class="cls-9" d="M243.19,124.7c1.31.58,1.9,2.1,1.32,3.41-.58,1.31-2.1,1.9-3.41,1.32-1.31-.58-1.9-2.1-1.32-3.41.58-1.31,2.1-1.9,3.41-1.32Z"/>
            <path class="cls-9" d="M261.59,128.38c.27.68-.07,1.45-.76,1.72-.68.27-1.45-.07-1.72-.76-.27-.68.07-1.45.76-1.72.68-.27,1.45.07,1.72.76Z"/>
            <path class="cls-9" d="M259.51,102.31c-.24.54-.87.78-1.41.54s-.78-.87-.54-1.41c.24-.54.87-.78,1.41-.54.54.24.78.87.54,1.41Z"/>
            <path class="cls-9" d="M243.16,108.98c.19.49-.05,1.03-.54,1.22-.49.19-1.03-.05-1.22-.54-.19-.49.05-1.03.54-1.22.49-.19,1.03.05,1.22.54Z"/>
            <path class="cls-9" d="M244.93,85.39c.13.34-.04.73-.38.86-.34.13-.73-.04-.86-.38-.13-.34.04-.73.38-.86.34-.13.73.04.86.38Z"/>
            <path class="cls-9" d="M211.02,144.68c.27.69-.08,1.47-.77,1.74-.69.27-1.47-.08-1.74-.77-.27-.69.08-1.47.77-1.74.69-.27,1.47.08,1.74.77Z"/>
            <path class="cls-9" d="M225.91,158.1c.11.29-.03.62-.33.74-.29.11-.62-.03-.74-.33-.11-.29.03-.62.33-.74.29-.11.62.03.74.33Z"/>
            <path class="cls-9" d="M252.14,149.41c.16.42-.05.88-.46,1.05-.42.16-.88-.05-1.05-.46-.16-.42.05-.88.46-1.05.42-.16.88.05,1.05.46Z"/>
            <path class="cls-9" d="M241.29,171.56c.29.75-.08,1.6-.84,1.9-.75.29-1.6-.08-1.9-.84-.29-.75.08-1.6.84-1.9.75-.29,1.6.08,1.9.84Z"/>
          </g>
          <g>
            <g>
              <path class="cls-7" d="M36.41,135c-1.06,1.74-2.68,3.04-4.24,4.34-8.83,7.38-17.12,16.63-18.85,28.02-1.83,12.07,4.23,25.06,9.93,35.86,2.82-16.27,11.45-31.47,23.97-42.23.77-.67,1.64-1.35,2.66-1.4,1.63-.09,2.94,1.56,3.09,3.19s-.52,3.21-1.19,4.71c-3.31,7.48-6.62,14.96-9.92,22.44-2.28,5.16-4.61,10.56-4.3,16.19.33,6.05,3.74,11.61,8.14,15.77,4.41,4.17,10.35,6.79,15.66,9.72-7.25-24.66-2.22-52.62,13.18-73.21,1.49-2,3.99-4.14,6.16-2.91,1.33.76,1.76,2.46,1.9,3.99.34,3.8-.34,7.61-1.1,11.34-2.43,11.89-5.8,23.58-10.06,34.94-2.09,5.57-4.43,11.37-3.65,17.26.94,7.15,6.44,13.04,12.84,16.36,6.39,3.33,13.78,5.74,20.9,6.89-4.74-16.47-6.92-33.68-6.42-50.81.21-7.42,1.02-15.13,4.9-21.46,1.04-1.69,2.66-3.43,4.64-3.2,2.47.29,3.47,3.29,3.82,5.76,1.32,9.21,1.31,18.61-.05,27.82-1.51,10.21-4.6,20.91-.95,30.56,4.01,10.59,17.73,16.56,28.68,13.68-10.47-9.51-15.74-24.43-13.55-38.4.34-2.19,1.04-4.62,2.99-5.69,2.44-1.34,5.63.29,7.04,2.68,1.41,2.39,1.57,5.29,1.85,8.06.77,7.42,2.87,14.88,7.34,20.85,4.47,5.97,11.57,10.26,19.03,10.1,8.98-.2,17.63-7.21,26.47-5.61,1.75-5.23,3.5-10.46,5.25-15.68,2.84-8.48,5.71-17.51,3.68-26.22-2.36-10.12-10.94-17.67-20.11-22.55-9.17-4.88-19.3-7.78-28.43-12.74-1.78-.97-3.76-2.42-3.66-4.45.09-1.85,1.91-3.12,3.68-3.67,4.24-1.33,8.84-.16,13.02,1.34,13.88,5,26.37,13.81,35.72,25.23-.16-4.89.38-10.18.85-15.05.47-4.87,0-10.18-3.09-13.98-2.62-3.21-6.68-4.81-10.55-6.29-10.53-4.01-21.06-8.02-31.59-12.03-2.67-1.02-5.81-2.65-5.88-5.51-.08-2.82,2.95-4.66,5.67-5.42,7.08-1.99,14.73-1,21.66,1.45,6.93,2.45,13.28,6.28,19.57,10.09-.26-5.98-.53-12.02-2.16-17.78-1.64-5.76-4.79-11.29-9.75-14.63-5.92-3.99-13.53-4.38-20.65-3.8-16.41,1.34-32.36,7.12-48.83,7.07-2.1,0-4.5-.26-5.72-1.97-.93-1.31-.84-3.14-.12-4.58.72-1.43,1.97-2.53,3.29-3.45,4.77-3.36,10.55-4.9,16.19-6.38,14.06-3.69,28.76-7.41,42.97-4.35-2.94-5.6-6.83-11.7-10.98-16.48-4.15-4.77-9.64-8.65-15.89-9.66-6.02-.97-12.2.8-17.65,3.54-5.45,2.74-10.36,6.43-15.54,9.65-1.38.86-3.05,1.71-4.57,1.11-1.52-.61-2.17-2.53-1.84-4.13s1.41-2.94,2.52-4.14c5.26-5.75,11.95-10.18,19.3-12.79-8.72-4.9-19.25-7.87-29.18-6.64-9.93,1.23-19.55,7.11-23.74,16.2-4.89,10.6-1.83,23,1.42,34.21-3.02-2.08-6.37-4.14-9.39-6.23-6.12-4.22-12.58-8.56-19.97-9.32-6.23-.64-12.46,1.39-17.98,4.35-9.01,4.84-16.69,12.41-20.85,21.76C.57,114.38-.39,123.01.13,131.42c.52,8.41,2.97,16.59,5.15,24.73,3.72-10.64,10.84-20.07,20.06-26.57,1.77-1.25,3.69-2.42,5.84-2.72,2.15-.3,4.58.47,5.66,2.34,1.02,1.76.63,4.05-.43,5.79ZM109.29,130.02c.18-2.91,2.79-5.07,5.44-6.29,4.2-1.93,8.9-2.4,13.5-2.85,2.43-.24,5.37-.24,6.7,1.81.7,1.08.71,2.5.29,3.72-.42,1.22-1.22,2.27-2.08,3.22-3.45,3.83-7.66,6.68-12.84,6.83-4.29.12-11.39-.31-11.01-6.45ZM120.51,155.82c-.69-1.17-1.36-2.39-1.56-3.73-.21-1.34.13-2.85,1.18-3.71,1.56-1.28,3.89-.7,5.72.14,5.99,2.75,10.93,7.68,13.8,13.61.9,1.87,2.58,4.68,1.81,6.76-.85,2.31-4.1,3.28-6.29,2.82-2.86-.6-5.08-2.8-6.98-5.02-2.89-3.37-5.43-7.03-7.68-10.86ZM41.37,118.55c.57-2.39,2.85-4,5.16-4.82,3.04-1.08,6.41-1.18,9.5-.28,1.51.44,3.04,1.2,3.78,2.58.92,1.73.27,3.96-1.03,5.42-2.28,2.58-7.8,5.3-11.29,4.85-2.02-.26-3.91-1.4-5.08-3.07-.95-1.35-1.42-3.08-1.04-4.69Z"/>
              <path class="cls-8" d="M77.24,108.76l4.6,7.42c-24.42,10.12-44.88,28.93-56.93,52.05,13-22.84,34.2-40.66,58.55-49.55l5.33,8.1c-18.2,15.6-30.66,37.44-34.84,60.7,5.1-22.97,18.27-43.87,36.43-58.29l.34.51,8.59,12.45.65.89c-13.16,21.61-18.94,47.39-16.36,72.23-1.59-24.55,4.96-49.38,18.18-69.74l6.46,8.82c3.07,4,6.1,8.02,9.2,12l7.01,8.65c-6.22,15.49-9.48,32.05-9.61,48.56,1.08-15.97,5.08-31.64,11.66-46.03l.45.56c3.24,3.86,6.52,7.68,9.81,11.5,3.25,3.72,6.55,7.4,9.9,11.03.47,10.61,2.92,21.04,7.13,30.59-2.98-8.93-4.42-18.3-4.31-27.57,9.44,10.1,19.25,19.85,29.49,29.12-13.25-14.83-26.22-29.83-38.7-45.21,15.46-1.73,31.81,3.02,44.09,13.21-12.11-11.3-29.26-17.27-46.18-15.83-2.56-3.24-5.13-6.47-7.72-9.68l-9.18-11.89c-2.97-4.03-6.01-8.01-9.01-12.02l-3.81-5.29c22.74-6.25,48.26-2.72,68.69,9.88-20.22-13.61-46.42-18.32-70.5-12.39l-3.16-4.39-6.84-9.75c14.91-9.41,32.45-14.88,50.33-15.49-17.95-.33-36.09,4.24-51.96,13.17l-.16-.22-8.04-11.93c6.33-16.87,20.55-30.92,38.02-36.93-17.15,4.94-32.07,17.63-39.87,34.12l-6.28-9.6c1.05-15.19,6.9-30.18,16.71-42.22-9.76,10.59-16.46,24.12-19.03,38.55-2.04-3.25-4.09-6.49-6.15-9.73-10.56-17.03-20.59-34.41-30.37-52,7.85,18.53,16.94,36.54,26.91,54.05,2.52,4.36,5.06,8.71,7.64,13.04l.69,1.12c-9.08-1.88-18.49-1.85-27.48-.06-10.56,2.1-20.62,6.61-28.97,13.25,8.65-6.25,18.8-10.23,29.23-11.8,9.83-1.49,19.95-.84,29.34,2.02Z"/>
            </g>
            <g class="cls-12">
              <path class="cls-7" d="M140.47,212.35c-.43-.55-.32-1.35.23-1.77.55-.43,1.35-.32,1.77.23.43.55.32,1.35-.23,1.77-.55.43-1.35.32-1.77-.23Z"/>
              <path class="cls-7" d="M157.8,223.47c-.4-.51-.3-1.25.21-1.65.51-.4,1.25-.3,1.65.21.4.51.3,1.25-.21,1.65-.51.4-1.25.3-1.65-.21Z"/>
              <path class="cls-7" d="M163.46,203.97c-.77-.99-.58-2.42.41-3.18.99-.77,2.42-.58,3.18.41s.58,2.42-.41,3.18c-.99.77-2.42.58-3.18-.41Z"/>
              <path class="cls-7" d="M125.03,200.12c-1.02-1.32-.77-3.21.55-4.23,1.32-1.02,3.21-.77,4.23.55,1.02,1.32.77,3.21-.55,4.23-1.32,1.02-3.21.77-4.23-.55Z"/>
              <path class="cls-7" d="M149.79,177.73c-.35-.46-.27-1.12.19-1.47.46-.35,1.12-.27,1.47.19.35.46.27,1.12-.19,1.47-.46.35-1.12.27-1.47-.19Z"/>
              <path class="cls-7" d="M100.79,161.46c-.49-.63-.37-1.54.26-2.03s1.54-.37,2.03.26.37,1.54-.26,2.03-1.54.37-2.03-.26Z"/>
              <path class="cls-7" d="M115.15,173.77c-.24-.32-.19-.77.13-1.01.32-.24.77-.19,1.02.13.24.32.19.77-.13,1.02-.32.24-.77.19-1.01-.13Z"/>
              <path class="cls-7" d="M114.18,186.05c-.25-.33-.19-.8.14-1.06.33-.25.8-.19,1.06.14s.19.8-.14,1.06c-.33.25-.8.19-1.06-.14Z"/>
              <path class="cls-7" d="M140.46,151.34c-.53-.69-.41-1.69.29-2.22.69-.53,1.69-.41,2.22.29.53.69.41,1.69-.29,2.22-.69.53-1.69.41-2.22-.29Z"/>
              <path class="cls-7" d="M139.81,132.86c-.4-.52-.3-1.26.21-1.65.52-.4,1.25-.3,1.65.21s.3,1.26-.21,1.65c-.52.4-1.25.3-1.65-.21Z"/>
              <path class="cls-7" d="M85.56,143.99c-.48-.62-.36-1.51.26-1.99.62-.48,1.51-.36,1.99.26.48.62.36,1.51-.26,1.99-.62.48-1.51.36-1.99-.26Z"/>
              <path class="cls-7" d="M85.16,157.43c-.21-.27-.16-.66.11-.86.27-.21.66-.16.86.11.21.27.16.66-.11.87-.27.21-.66.16-.87-.11Z"/>
              <path class="cls-7" d="M90.66,218.46c-.35-.45-.26-1.09.19-1.44.45-.35,1.09-.26,1.44.19.35.45.26,1.09-.19,1.44-.45.35-1.09.26-1.44-.19Z"/>
              <path class="cls-7" d="M79.96,226.71c-.35-.45-.26-1.09.19-1.44.45-.35,1.09-.26,1.44.19.35.45.26,1.09-.19,1.44s-1.09.26-1.44-.19Z"/>
              <path class="cls-7" d="M75.64,211.61c-.31-.4-.23-.96.16-1.27.4-.31.96-.23,1.27.16.31.4.23.96-.16,1.27-.4.31-.96.23-1.27-.16Z"/>
              <path class="cls-7" d="M47.65,197.74c-.34-.44-.25-1.06.18-1.4.44-.34,1.06-.25,1.4.18.34.44.25,1.06-.18,1.4-.44.34-1.06.25-1.4-.18Z"/>
              <path class="cls-7" d="M70.3,136.92c-.37-.47-.28-1.16.2-1.52.47-.37,1.16-.28,1.52.2.37.47.28,1.16-.2,1.52-.47.37-1.16.28-1.52-.2Z"/>
              <path class="cls-7" d="M59.47,153.1c-.14-.18-.11-.45.08-.59s.45-.11.59.08c.14.18.11.45-.08.59-.18.14-.45.11-.59-.08Z"/>
              <path class="cls-7" d="M55.74,143.72c-.33-.42-.25-1.03.18-1.36.42-.33,1.03-.25,1.36.18.33.42.25,1.03-.18,1.36-.42.33-1.03.25-1.36-.18Z"/>
              <path class="cls-7" d="M44.44,134.06c-.35-.46-.27-1.11.19-1.47.46-.35,1.11-.27,1.47.19.35.46.27,1.11-.19,1.47-.46.35-1.11.27-1.47-.19Z"/>
              <path class="cls-7" d="M68.31,114.59c-.29-.37-.22-.9.15-1.19.37-.29.9-.22,1.19.15.29.37.22.9-.15,1.19-.37.29-.9.22-1.19-.15Z"/>
              <path class="cls-7" d="M33.56,119.95c-.18-.23-.13-.56.09-.73.23-.18.56-.13.73.09.18.23.13.56-.09.73-.23.18-.56.13-.73-.09Z"/>
              <path class="cls-7" d="M38.99,98.08c-.18-.24-.14-.58.1-.76s.58-.14.76.1.14.58-.1.76c-.24.18-.58.14-.76-.1Z"/>
              <path class="cls-7" d="M53.15,97.29c-.24-.32-.18-.77.13-1.01.32-.24.77-.19,1.01.13.24.32.18.77-.13,1.01-.32.24-.77.18-1.01-.13Z"/>
              <path class="cls-7" d="M36.89,92c-.37-.47-.28-1.16.2-1.52.47-.37,1.16-.28,1.52.2.37.47.28,1.16-.2,1.52-.47.37-1.16.28-1.52-.2Z"/>
              <path class="cls-7" d="M28.37,105.92c-.09-.12-.07-.29.05-.38.12-.09.29-.07.38.05s.07.29-.05.38-.29.07-.38-.05Z"/>
              <path class="cls-7" d="M98.78,111.56c-.54-.7-.41-1.71.29-2.25.7-.54,1.71-.41,2.25.29s.41,1.71-.29,2.25-1.71.41-2.25-.29Z"/>
              <path class="cls-7" d="M109.99,114.77c-.3-.4-.23-.96.16-1.27.4-.3.96-.23,1.27.16.31.4.23.96-.16,1.27s-.96.23-1.27-.16Z"/>
              <path class="cls-7" d="M97.61,121.42c-.47-.61-.35-1.48.25-1.95.61-.47,1.48-.35,1.95.25.47.61.35,1.48-.25,1.95-.61.47-1.48.35-1.95-.25Z"/>
              <path class="cls-7" d="M95.22,105.22c-.36-.47-.28-1.15.2-1.51.47-.36,1.15-.28,1.51.2.36.47.28,1.15-.2,1.51-.47.36-1.15.28-1.51-.2Z"/>
              <path class="cls-7" d="M90.34,86.31c-.53-.69-.41-1.69.29-2.22.69-.53,1.69-.41,2.22.29.53.69.41,1.69-.29,2.22-.69.53-1.69.41-2.22-.29Z"/>
              <path class="cls-7" d="M85.36,99.49c-.24-.31-.18-.75.13-.99.31-.24.75-.18.99.13s.18.75-.13.99c-.31.24-.75.18-.99-.13Z"/>
              <path class="cls-7" d="M92.13,92.7c-.42-.54-.32-1.32.23-1.74s1.32-.32,1.74.23c.42.54.32,1.32-.23,1.74-.54.42-1.32.32-1.74-.23Z"/>
              <path class="cls-7" d="M78.92,66.31c-.45-.58-.34-1.41.24-1.86.58-.45,1.41-.34,1.86.24.45.58.34,1.41-.24,1.86-.58.45-1.41.34-1.86-.24Z"/>
              <path class="cls-7" d="M75.71,79.9c.24.32.18.77-.13,1.01-.32.24-.77.18-1.01-.13s-.18-.77.13-1.01c.32-.24.77-.18,1.01.13Z"/>
              <path class="cls-7" d="M136.75,77.31c-.73-.95-.55-2.31.39-3.04s2.31-.55,3.04.39.55,2.31-.39,3.04c-.95.73-2.31.55-3.04-.39Z"/>
              <path class="cls-7" d="M126.58,83.78c-.37-.47-.28-1.15.2-1.52.47-.37,1.15-.28,1.52.2.37.47.28,1.15-.2,1.52-.47.37-1.15.28-1.52-.2Z"/>
              <path class="cls-7" d="M122.62,70.77c-.24-.31-.18-.75.13-.99.31-.24.75-.18.99.13.24.31.18.75-.13.99-.31.24-.75.18-.99-.13Z"/>
              <path class="cls-7" d="M165.2,109.18c-.21-.28-.16-.67.11-.89.28-.21.67-.16.89.11.21.28.16.67-.11.89-.28.21-.67.16-.89-.11Z"/>
              <path class="cls-7" d="M153.53,118.74c-.35-.04-.59-.36-.55-.71.04-.35.36-.59.71-.55.35.04.59.36.55.71s-.36.59-.71.55Z"/>
              <path class="cls-7" d="M170.51,184.93c-.71-.92-.54-2.25.38-2.96.92-.71,2.25-.54,2.96.38.71.92.54,2.25-.38,2.96-.92.71-2.25.54-2.96-.38Z"/>
              <path class="cls-7" d="M186.27,193.13c-.2-.26-.15-.63.11-.83.26-.2.63-.15.83.11.2.26.15.63-.11.83s-.63.15-.83-.11Z"/>
              <path class="cls-7" d="M183.77,163.51c-.57-.74-.43-1.8.31-2.37.74-.57,1.8-.43,2.37.31.57.74.43,1.8-.31,2.37-.74.57-1.8.43-2.37-.31Z"/>
              <path class="cls-7" d="M189.19,170.54s.3-.23.67-.52.67-.52.67-.52c0,0-.3.23-.67.52s-.67.52-.67.52Z"/>
            </g>
          </g>
          <g>
            <path class="cls-5" d="M205.04,300.03c0-1.42,1.15-2.57,2.57-2.57s2.57,1.15,2.57,2.57-1.15,2.57-2.57,2.57-2.57-1.15-2.57-2.57Z"/>
            <path class="cls-5" d="M197.48,264.21c0-1.15.93-2.08,2.08-2.08s2.08.93,2.08,2.08-.93,2.08-2.08,2.08-2.08-.93-2.08-2.08Z"/>
            <circle class="cls-5" cx="237.03" cy="276.12" r="4.15"/>
            <path class="cls-5" d="M283.07,278.07c0-1.21.98-2.19,2.19-2.19s2.19.98,2.19,2.19-.98,2.19-2.19,2.19-2.19-.98-2.19-2.19Z"/>
            <path class="cls-5" d="M335.18,257.43c0-1.1.89-1.99,1.99-1.99s1.99.89,1.99,1.99-.89,1.99-1.99,1.99-1.99-.89-1.99-1.99Z"/>
            <path class="cls-5" d="M334.3,289.56c0-1.34,1.09-2.43,2.43-2.43s2.43,1.09,2.43,2.43-1.09,2.43-2.43,2.43-2.43-1.09-2.43-2.43Z"/>
            <circle class="cls-5" cx="374.24" cy="270.03" r="1.39"/>
            <path class="cls-5" d="M487.14,219.63c0-1.08.87-1.95,1.95-1.95s1.95.87,1.95,1.95-.87,1.95-1.95,1.95-1.95-.87-1.95-1.95Z"/>
            <path class="cls-5" d="M418.66,275.98c0-1.15.94-2.09,2.09-2.09s2.09.94,2.09,2.09-.94,2.09-2.09,2.09-2.09-.94-2.09-2.09Z"/>
            <circle class="cls-5" cx="484.05" cy="254.35" r="3.09"/>
            <path class="cls-5" d="M511.9,181.11c-1.47,0-2.66-1.19-2.66-2.66s1.19-2.66,2.66-2.66,2.66,1.19,2.66,2.66-1.19,2.66-2.66,2.66Z"/>
            <path class="cls-5" d="M544.54,112.6c0-1.17.95-2.12,2.12-2.12s2.12.95,2.12,2.12-.95,2.12-2.12,2.12-2.12-.95-2.12-2.12Z"/>
            <circle class="cls-5" cx="528.37" cy="157.68" r="3.3"/>
            <path class="cls-5" d="M448.5,269.13c0-1.57,1.27-2.84,2.84-2.84s2.84,1.27,2.84,2.84-1.27,2.84-2.84,2.84-2.84-1.27-2.84-2.84Z"/>
            <path class="cls-5" d="M200.38,247.65c0-1.99,1.62-3.61,3.61-3.61s3.61,1.62,3.61,3.61-1.62,3.61-3.61,3.61-3.61-1.62-3.61-3.61Z"/>
            <circle class="cls-5" cx="242.86" cy="298.98" r="2.93"/>
            <path class="cls-5" d="M262.56,289.56c0-1.34,1.09-2.43,2.43-2.43s2.43,1.09,2.43,2.43-1.09,2.43-2.43,2.43-2.43-1.09-2.43-2.43Z"/>
          </g>
        </g>
      </g>
    </g>
  </g>
</svg>